<svg xmlns="http://www.w3.org/2000/svg" role="img" viewBox="0 0 500 86">
				<path id="Musings_of_a_Rover" data-name="Musings of a Rover" class="cls-1" d="M35.486,31.009a4.166,4.166,0,0,1-.266.744c-0.16.106-.266,0.213-0.425,0.319l0.053,0.053a1.516,1.516,0,0,1,.425-0.372,2.674,2.674,0,0,0,.266-0.691c0.16-.425.213-0.744,0.372-1.064,0.9-1.649,1.808-3.3,2.659-4.946h0c0-.106-0.053-0.159-0.053-0.266a0.186,0.186,0,0,0,.053-0.106v0.053a9.2,9.2,0,0,1,1.17-2.659,18.648,18.648,0,0,0,1.968-4.627,9.191,9.191,0,0,0,.479-3.138,6.771,6.771,0,0,0-5.85-5.85,5.28,5.28,0,0,1-.8-0.16,6.632,6.632,0,0,0-4.414-.266c-3.3.532-6.116,2.34-8.934,3.989a42.351,42.351,0,0,0-7.286,5.85C11.715,20.9,8.79,24.1,5.865,27.339A21.765,21.765,0,0,0,3.206,31.7c-0.106.16-.106,0.266-0.213,0.425a0.844,0.844,0,0,0,.319,1.064,5.119,5.119,0,0,0,2.34.8,1.62,1.62,0,0,0,1.436-.425A3.821,3.821,0,0,0,7.832,32.5a23.151,23.151,0,0,1,3.723-4.786c1.064-1.117,2.127-2.34,3.244-3.457a54.261,54.261,0,0,1,3.935-3.882c1.649-1.436,3.35-2.872,5-4.414a6.866,6.866,0,0,1,2.18-1.383,9.95,9.95,0,0,0,4.361-2.18,2.881,2.881,0,0,0,.585-0.319,0.583,0.583,0,0,1,.638.16V12.183a9.23,9.23,0,0,0,1.915-.691,9.4,9.4,0,0,1,1.6-.319A1.111,1.111,0,0,1,36.443,12.4a5.72,5.72,0,0,1,0,2.127,18.873,18.873,0,0,1-1.6,5.69C34,22.128,33.04,24.1,32.136,26.01c-0.745,1.542-1.329,3.031-2.18,4.52-0.957,1.7-1.914,3.51-2.872,5.212-2.925,5.212-5.85,10.423-8.828,15.741-1.383,2.446-2.872,4.893-4.148,7.445a8.823,8.823,0,0,1-1.383,2.18,1.1,1.1,0,0,0-.053,1.383,0.652,0.652,0,0,1-.106.851c-0.532.9-1.17,1.649-1.7,2.5a4.932,4.932,0,0,0-.851,1.861,0.755,0.755,0,0,0,.213.745c1.117,0.745,2.127,1.01,3.138-.106A2.749,2.749,0,0,0,14,67.383a8.27,8.27,0,0,1,1.436-1.861,12,12,0,0,0,2.127-3.031,12.947,12.947,0,0,1,2.34-3.244c0.16-.266.266-0.532,0.425-0.745a48.611,48.611,0,0,1,3.191-4.414,45.626,45.626,0,0,0,3.669-5.371,6.036,6.036,0,0,1,1.6-2.074V46.7c0.16-.159.213-0.319,0.372-0.479l-0.053.053c1.117-1.649,2.393-3.244,3.51-4.892,1.17-1.808,2.606-3.457,3.776-5.158q1.755-2.313,3.51-4.467h0a6.871,6.871,0,0,1,2.021-2.712h0a1.99,1.99,0,0,1,.372-0.319H42.24c0.053-.106.053-0.266,0.266-0.213,0.053,0.053.053,0.16,0.106,0.213h0a3.823,3.823,0,0,0,1.33-1.7h0.053a0.277,0.277,0,0,1-.106-0.213,0.114,0.114,0,0,1,.106-0.106H43.941a2.4,2.4,0,0,0,.372-0.372l-0.053.053a0.249,0.249,0,0,1,.425,0V26.329a1.185,1.185,0,0,0,.585-1.011h0.053V25l-0.053.053a0.255,0.255,0,0,1,.372,0V25c0.266-.213.425-0.425,0.745-0.691a0.732,0.732,0,0,1-.16-0.213c0.213,0,.053.16,0.106,0.213a1.8,1.8,0,0,0,.691-0.957L46.973,23.3l0.053,0.053a8.668,8.668,0,0,0,2.712-2.5,14.621,14.621,0,0,0,1.01-1.489c1.011-1.436,2.34-2.446,3.4-3.776a47.692,47.692,0,0,1,6.754-6.754A17.378,17.378,0,0,1,65.32,6.28c0.638-.319,1.064-0.053,1.17.691a3.682,3.682,0,0,1,0,1.7,24.84,24.84,0,0,1-2.074,5.637c-1.329,2.287-2.765,4.573-3.988,6.807-1.7,2.872-3.457,5.743-4.946,8.615-2.18,3.988-4.467,7.817-6.435,11.806-1.17,2.659-2.606,5.212-3.723,7.764-0.425,1.117-.851,2.234-1.276,3.3a1.946,1.946,0,0,0,.106,1.223,6.554,6.554,0,0,0,2.925,2.446A0.724,0.724,0,0,0,48.089,56a3.72,3.72,0,0,1,.8-1.064,14.218,14.218,0,0,0,5-5.052A46.651,46.651,0,0,1,57.928,44.3c1.542-1.861,3.244-3.51,4.573-5.477a19.955,19.955,0,0,1,1.968-2.34c1.489-1.648,2.978-3.244,4.573-4.893a54.813,54.813,0,0,1,3.989-3.882h0a4.118,4.118,0,0,1,2.021-1.649h0a1.592,1.592,0,0,1,.638-0.8v0.053a8.915,8.915,0,0,0,2.819-1.649c0.532-.372,1.17-0.8,1.755-1.276,1.01-.532,1.968-1.01,2.978-1.6,0.425-.266.745,0.053,0.691,0.585a2.26,2.26,0,0,1-.106.585,19.422,19.422,0,0,1-2.712,5.584A4.972,4.972,0,0,0,80,29.254a29.727,29.727,0,0,1-2.765,5.318,26.4,26.4,0,0,0-2.074,3.51c-1.808,3.882-3.988,7.658-5.584,11.753a44.266,44.266,0,0,0-2.18,6.488,9.312,9.312,0,0,0,1.223,7.392,4.559,4.559,0,0,0,3.563,2.233c1.6,0.16,2.5-.319,2.872-1.808a4.765,4.765,0,0,1,.8-1.649c0.159-.479.532-0.8,0.638-1.17s-0.213-.213-0.479-0.16h0a1.579,1.579,0,0,0,.053-0.851,0.824,0.824,0,0,0-.106-0.425,0.4,0.4,0,0,0-.425.053c-0.585.585-1.223,1.276-1.755,1.808-0.319.372-.638,1.064-1.17,0.9-0.638-.213-0.532-1.064-0.532-1.6a3.89,3.89,0,0,1,.16-1.17,7.691,7.691,0,0,0,.479-2.446,14.46,14.46,0,0,1,.691-2.606,4.2,4.2,0,0,0,.16-0.691,0.287,0.287,0,0,0-.213-0.213,0.185,0.185,0,0,0-.266.053,2.107,2.107,0,0,0-.638,1.223,25.418,25.418,0,0,0-1.436,6.009,1.7,1.7,0,0,1-.159.745c0,0.106-.159.106-0.266,0.106,0,0.053-.053,0-0.106-0.053a0.951,0.951,0,0,1-.213-0.9,3.12,3.12,0,0,0,.266-1.33,19.4,19.4,0,0,1,1.33-5.158c0.9-2.234,1.914-4.308,2.765-6.435A34.678,34.678,0,0,1,76.487,44.2c0.957-1.755,1.755-3.563,2.819-5.158,1.276-2.074,2.393-4.2,3.563-6.328a21.2,21.2,0,0,1,1.649-3.3,2.426,2.426,0,0,0,.425-1.117c-0.16-1.117.479-1.489,1.276-1.861,0.16-.053.319-0.159,0.425,0.053a0.241,0.241,0,0,1,0,.266,18.17,18.17,0,0,1-1.117,2.287,0.574,0.574,0,0,0,.16.372,0.391,0.391,0,0,0,.319-0.106c0.638-1.223,1.6-2.34,1.489-3.988a2.58,2.58,0,0,1-.16-0.372,0.262,0.262,0,0,1,.213-0.319c0.213,0,.213.213,0.16,0.372a1.615,1.615,0,0,1-.266.372,1.316,1.316,0,0,0,.851-0.532,14.356,14.356,0,0,0,1.17-3.4,0.676,0.676,0,0,0-.053-0.585,6.539,6.539,0,0,0-1.861-2.287c-0.851-.638-2.074,0-2.818-0.851a0.454,0.454,0,0,0-.479-0.053,13.053,13.053,0,0,0-3.457.8c-1.861.851-3.829,1.6-5.265,3.138a6.775,6.775,0,0,1-1.01.691,51.722,51.722,0,0,0-5.9,5.424c-1.649,1.755-3.191,3.51-4.786,5.212-1.755,1.968-3.616,3.882-5.371,5.9-1.436,1.7-2.765,3.457-4.2,5.158a2.393,2.393,0,0,1-.851.8,3.452,3.452,0,0,0-1.489,1.542c-0.745,1.01-1.223,2.233-2.18,2.925a2.028,2.028,0,0,1-.16.532c-0.106.106-.319,0-0.213-0.213a1.615,1.615,0,0,0,.372-0.266,5.1,5.1,0,0,1,.638-1.7c0.851-1.7,1.755-3.4,2.659-5.105,1.7-3.191,3.3-6.488,5.158-9.625,1.648-2.765,3.244-5.69,4.946-8.4a44.838,44.838,0,0,0,2.925-4.946c0.9-1.7,1.808-3.457,2.606-5.265h0a0.282,0.282,0,0,1-.159-0.106,4.335,4.335,0,0,1-.479-0.425c0.053-.266.425-0.159,0.638-0.159H68.617c0.16-.106.213-0.106,0.319,0V13.512a1.04,1.04,0,0,1,.053,1.223,13.676,13.676,0,0,1-1.648,3.829,6.116,6.116,0,0,0-1.064,2.393H66.224a1.625,1.625,0,0,0,1.117-1.223,64.059,64.059,0,0,0,3.563-7.5,12.988,12.988,0,0,0,.8-3.669,1.607,1.607,0,0,0-.479-1.276,18.679,18.679,0,0,0-2.872-2.925c-1.17-.691-2.606-0.319-3.669-1.17a0.922,0.922,0,0,0-.638.053,5.058,5.058,0,0,0-.957.213,20.364,20.364,0,0,0-6.754,4.095A39.5,39.5,0,0,0,51.387,12.5c-2.287,2.765-4.467,5.424-6.7,8.03-2.818,3.244-5.637,6.435-8.349,9.838A1.359,1.359,0,0,1,35.486,31.009Zm46.639,0.425H82.071l0.372-.372c0.106-.106.319-0.106,0.16-0.213a0.4,0.4,0,0,0-.053.213A3.469,3.469,0,0,0,82.124,31.434ZM28.785,40.528h0v0Zm48.606-4.095v0ZM59.523,6.759v0Zm-7.445,7.5a2.456,2.456,0,0,1,.372-0.372,1.477,1.477,0,0,1,.532-1.064,13.536,13.536,0,0,1,2.872-2.606L55.8,10.109a2.417,2.417,0,0,1-.9,1.6,10.8,10.8,0,0,1-2.5,2.127,2.218,2.218,0,0,0-.319.425,0.815,0.815,0,0,0-.372.266A1.727,1.727,0,0,1,50.7,15.906a10.5,10.5,0,0,1-3.244,3.935c-0.106.106-.213,0.106-0.266-0.053a0.536,0.536,0,0,0,.053-0.16,23.245,23.245,0,0,1,1.968-2.446c0.532-.479.8-1.117,1.489-1.223a2.2,2.2,0,0,1,1.011-1.436C51.865,14.416,51.972,14.31,52.078,14.257Zm5.8-6.169c0.053,0,.106-0.053.16-0.053a0.185,0.185,0,0,1-.106.053H57.874ZM14.533,59.779c0.213-.106.319-0.213,0.425-0.266a1.082,1.082,0,0,1,.319-0.8A1.051,1.051,0,0,1,15.6,58.13l0.106-.106L15.6,58.13a0.811,0.811,0,0,1-.319.585,1.194,1.194,0,0,1-.319.744c-0.106.106-.266,0.16-0.425,0.319a0.4,0.4,0,0,1-.053.266C14.32,59.885,14.533,59.885,14.533,59.779ZM23.68,43.612a1.433,1.433,0,0,1,.425-0.372,1.026,1.026,0,0,1,.319-0.957l0.053-.106-0.106.053A1,1,0,0,1,24,43.24a1.153,1.153,0,0,1-.372.319,1.221,1.221,0,0,1-.213.745,4.063,4.063,0,0,0-.372.691,2.711,2.711,0,0,1-1.064,1.648,0.981,0.981,0,0,1-.266.638,2.237,2.237,0,0,1-1.064,1.649,0.872,0.872,0,0,1-.319.745l-0.053.053,0.053-.053a0.732,0.732,0,0,1,.319-0.691,3.214,3.214,0,0,1,1.064-1.7,1.21,1.21,0,0,1,.319-0.638,1.861,1.861,0,0,1,1.064-1.6,0.893,0.893,0,0,1,.319-0.745A1.351,1.351,0,0,1,23.68,43.612Zm24.728,1.649a0.722,0.722,0,0,1,.372-0.585V44.3c0.106,0.16-.053.213-0.053,0.319-0.106.16-.213,0.425-0.372,0.638h0.053ZM19.319,51.323l-0.053.053a0.831,0.831,0,0,1-.319.638,1.252,1.252,0,0,1-.266.691,2.29,2.29,0,0,1-1.064,1.6,1.345,1.345,0,0,1-.319.8,1.385,1.385,0,0,1-.691.957,0.479,0.479,0,0,0-.053.266c-0.213-.106.053-0.16,0.053-0.266A1.284,1.284,0,0,1,17.3,55.1a1.277,1.277,0,0,1,.319-0.8,3.15,3.15,0,0,1,1.064-1.6A0.729,0.729,0,0,1,19,52.014l0.319-.638V51.323Zm27.707,0.053h0a2.234,2.234,0,0,1,.106-0.319c-0.053,0,0,.053-0.053.106A0.257,0.257,0,0,1,47.026,51.376Zm25.313-1.383a0.927,0.927,0,0,1-.319.638,5.336,5.336,0,0,1-1.436,3.4,1.3,1.3,0,0,1-.266,1.064c0,0.106-.053.213-0.053,0.319,0,0.159,0,.213-0.106.106a0.2,0.2,0,0,1,.053-0.16,1.7,1.7,0,0,1,.16-0.266,1.464,1.464,0,0,1,.266-1.064,6.939,6.939,0,0,1,1.436-3.35,0.982,0.982,0,0,1,.266-0.638,0.674,0.674,0,0,0,.053-0.319C72.605,49.94,72.339,49.887,72.339,49.994Zm-24.3-1.011a0.78,0.78,0,0,1-.106.213C47.824,49.09,48.036,49.09,48.036,48.983ZM26.445,41.538a0.966,0.966,0,0,0-.319.745,1.05,1.05,0,0,0-.319.638,3.274,3.274,0,0,1-.319.213l-0.106.106c0.053,0.106.106,0.106,0.213,0a0.9,0.9,0,0,0,.16-0.319,7.058,7.058,0,0,0,.319-0.638,2.1,2.1,0,0,0,.319-0.8c0.053-.053.319-0.053,0.106-0.16C26.5,41.432,26.445,41.432,26.445,41.538ZM74.36,42.229a4.058,4.058,0,0,0,.372-0.691c0-.106.053-0.106,0.053-0.213a0.319,0.319,0,0,0-.053.213A2.988,2.988,0,0,0,74.36,42.229ZM32.508,31.062c0,0.106-.053.213-0.053,0.319-0.213-.16.053-0.16,0.106-0.266Zm-2.765,1.755a2.367,2.367,0,0,1-.319.638,1.674,1.674,0,0,1-.638,1.01,3.02,3.02,0,0,1-.638,1.383,3.547,3.547,0,0,1-.691,1.33,3.213,3.213,0,0,1-1.064,1.7,4.359,4.359,0,0,1-1.329,2.34l-0.053.053,0.106-.053a3.877,3.877,0,0,1,1.329-2.287,2.06,2.06,0,0,1,1.01-1.7,1.152,1.152,0,0,1,.691-1.329,1.451,1.451,0,0,1,.638-1.436,1.6,1.6,0,0,1,.691-1.01A1.365,1.365,0,0,1,29.742,32.817Zm21.75,10.37-0.106.053a1.393,1.393,0,0,1-.16.425c-0.053.106-.106,0.106-0.213,0,0-.053,0-0.16.053-0.16a2.251,2.251,0,0,1,.372-0.266Zm-1.436-1.329a0.479,0.479,0,0,0-.053.266c-0.213-.16.053-0.16,0.053-0.213a1.439,1.439,0,0,1,.319-1.01c0.266-.638.319-1.33,1.064-1.649a1.27,1.27,0,0,1,.266-0.745,12.386,12.386,0,0,1,1.01-2.074,7.38,7.38,0,0,1,1.755-2.978,1.352,1.352,0,0,1,.638-1.064,2.259,2.259,0,0,1,.585-1.649c0.585-1.064,1.223-2.074,1.914-3.084a1.439,1.439,0,0,1,.532-0.585c0.053-.106.053-0.213,0.106-0.319,0.16,0.213-.106.213-0.106,0.266-0.106.319-.16,0.691-0.266,0.957-0.745,1.276-1.489,2.553-2.18,3.882a5.63,5.63,0,0,1-.638.532,1.21,1.21,0,0,1-.638,1.064,4.6,4.6,0,0,1-1.7,2.978,2.315,2.315,0,0,1-1.01,2.021,1.077,1.077,0,0,1-.319.744,2.126,2.126,0,0,1-1.01,1.649A1.438,1.438,0,0,1,50.057,41.857Zm4.733,3.776a0.932,0.932,0,0,1,.691-0.638,1.721,1.721,0,0,1,.638-1.383A34.05,34.05,0,0,0,59.576,39.3a64.044,64.044,0,0,1,4.893-5.8C66.755,30.9,69.1,28.4,71.595,25.85c0.585-.638,1.329-1.17,2.074-1.861a20.832,20.832,0,0,1,2.765-2.074c0.9-.479,1.436-1.436,2.393-1.915a3.759,3.759,0,0,1,1.329-.585c0.106-.053.16,0.053,0.266,0.106a0.709,0.709,0,0,1-.159.266,39.323,39.323,0,0,0-4.733,3.563,2.576,2.576,0,0,1-1.915.585,0.858,0.858,0,0,1-.213,1.223l-3.457,3.457a45.834,45.834,0,0,0-3.35,3.776c-1.861,2.234-3.829,4.361-5.69,6.648-1.17,1.329-2.393,2.712-3.51,4.042a6.352,6.352,0,0,1-1.968,1.808,0.847,0.847,0,0,1-.691.691,1.78,1.78,0,0,1-.585,1.063l-0.106.106,0.106-.053A1.023,1.023,0,0,1,54.79,45.633ZM59.2,25.052a1.083,1.083,0,0,1,.372-0.319,1.708,1.708,0,0,1,.053-0.744,11.357,11.357,0,0,1,2.18-3.35l0.053-.053H61.81a14.157,14.157,0,0,1-2.287,4.095,2.311,2.311,0,0,0-.319.372,1.5,1.5,0,0,0-.213.585,0.322,0.322,0,0,1-.319,0,0.2,0.2,0,0,1,.053-0.16A3.434,3.434,0,0,1,59.2,25.052Zm21.165,9.36a1.552,1.552,0,0,1-.585,1.117,1.34,1.34,0,0,1-.691,1.276,2.281,2.281,0,0,1-1.064,1.7c0.16,0.213.532,0.372,0.16,0.691,0,0.053-.106.053-0.16,0.053C77.6,39.358,77.657,40,77.179,40a2.592,2.592,0,0,1,.532-1.17,2.311,2.311,0,0,1,.372-0.319,2,2,0,0,1,1.01-1.649,1.827,1.827,0,0,1,.691-1.329,1.209,1.209,0,0,1,.638-1.064,1.206,1.206,0,0,1,.745-1.01c0.106-.16.106-0.372,0.213-0.585,0.053-.106.106-0.106,0.213,0a0.165,0.165,0,0,1-.053.106c-0.106.159-.266,0.319-0.372,0.479A1.147,1.147,0,0,1,80.369,34.412ZM72.924,48.4l0.159-.053a1.959,1.959,0,0,1,.585-1.383,1.8,1.8,0,0,1,.638-1.383,2.208,2.208,0,0,1,1.117-1.968c0-.106.053-0.213,0.053-0.372,0.213,0.213-.053.213-0.106,0.372a3.6,3.6,0,0,1-1.064,1.968,1.691,1.691,0,0,1-.638,1.329,1.324,1.324,0,0,1-.638,1.383Zm3.031-6.062,0.053-.106a3.573,3.573,0,0,0,.319-0.8,0.4,0.4,0,0,0,.213-0.053,0.284,0.284,0,0,1,0,.213,2.007,2.007,0,0,1-.532.638Zm-46.213-3.51a2.247,2.247,0,0,1-.16.638,0.2,0.2,0,0,1-.319,0c0-.053,0-0.16.053-0.16,0.16-.16.319-0.266,0.479-0.425a16.613,16.613,0,0,1,2.34-4.52,1.427,1.427,0,0,1,.691-0.532,2.316,2.316,0,0,1,.372-1.6c0.851-1.436,1.6-2.978,2.287-4.467,0.585-1.276,1.33-2.553,1.915-3.776a2.749,2.749,0,0,1,.8-0.957h0a14.919,14.919,0,0,1-1.33,3.723c-0.9,1.861-1.914,3.669-2.818,5.477a3.012,3.012,0,0,1-1.276,1.542c0,0.053.053,0.16,0.053,0.213A9.086,9.086,0,0,1,29.742,38.826Zm22.335,2.34a0.578,0.578,0,0,0-.053.266c-0.16-.053.053-0.106,0.053-0.213a16.673,16.673,0,0,1,1.808-3.084,4.5,4.5,0,0,0,.851-1.914,1.685,1.685,0,0,1,1.383-1.064,1.419,1.419,0,0,1-.053-1.223c0.319-.638.638-1.33,1.01-1.968,1.17-2.021,2.446-4.095,3.616-6.275,0.372-.585.851-1.17,1.383-1.861a13.514,13.514,0,0,1,1.861-2.446c0.053-.957.957-1.383,1.117-2.287a0.407,0.407,0,0,1,.266-0.106,0.318,0.318,0,0,1,.106.425,3.74,3.74,0,0,1-1.542,1.968,2.4,2.4,0,0,1-.266.9c-0.691,1.276-1.489,2.606-2.234,3.935-0.9,1.542-1.755,3.244-2.712,4.786-0.8,1.383-1.276,2.978-2.553,4.095a4.031,4.031,0,0,1-.16.851,48.219,48.219,0,0,1-3.084,4.733A1.411,1.411,0,0,1,52.078,41.166Zm-27.068,8.19,0.106-.053a3.308,3.308,0,0,1,.479-1.383c2.021-3.085,4.095-6.009,6.275-8.934,0.745-.957,1.383-1.914,2.127-2.872,2.021-2.765,3.935-5.637,6.169-8.19A72.4,72.4,0,0,1,45,22.074a9.3,9.3,0,0,0,1.064-1.01,3.388,3.388,0,0,0,.372-0.106V21.33a0.416,0.416,0,0,1-.213.213,4.912,4.912,0,0,0-.744.744c-1.276,1.489-2.393,3.138-3.829,4.68-0.851.851-1.223,2.074-2.021,3.031-2.233,2.659-4.148,5.637-6.275,8.3-1.649,2.233-3.138,4.414-4.839,6.488-0.957,1.064-1.649,2.34-2.606,3.563a2.319,2.319,0,0,1-.851.9ZM50.323,45.1a1.187,1.187,0,0,1-.319.691,6.781,6.781,0,0,1-.8,1.329,0.276,0.276,0,0,1-.213.106c-0.106,0-.106-0.106-0.106-0.266,0.319-.638.745-1.223,1.064-1.914a0.165,0.165,0,0,0,.106-0.053h0.16A0.2,0.2,0,0,0,50.323,45.1ZM38.73,21.011c0.213-.053.479-0.106,0.425,0.319a0.6,0.6,0,0,1-.372.585,0.557,0.557,0,0,1-.479-0.532C38.3,20.958,38.464,20.958,38.73,21.011Zm1.649-3.084V17.288c0-.16.053-0.213,0.213-0.16a0.312,0.312,0,0,1,.106.266,5.267,5.267,0,0,1-.106.957,0.3,0.3,0,0,1-.213.372c0-.106-0.053-0.16-0.053-0.319V17.926h0.053ZM30.54,35.21a1.162,1.162,0,0,1-.266.16c-0.053,0-.106-0.106-0.16-0.106,0.053-.106.053-0.213,0.16-0.213A0.253,0.253,0,0,1,30.54,35.21Zm-1.6,2.287a0.169,0.169,0,0,1,0,.16c-0.16.053-.16,0.053-0.16-0.106A0.263,0.263,0,0,0,28.945,37.5Zm3.138-5.105a0.24,0.24,0,0,1-.159.16c-0.106.053-.213,0-0.16-0.16h0.319Zm46.692,9.891c-1.383,1.436-2.021,3.35-2.925,5a2.35,2.35,0,0,0-.106,1.064l-0.053-.053a1.475,1.475,0,0,0,.851-0.745,17.218,17.218,0,0,0,1.436-3.191,4.453,4.453,0,0,0,.745-2.127Zm-3.031,6.063a11.51,11.51,0,0,0-1.915,3.669,0.18,0.18,0,0,0,.106.266,0.237,0.237,0,0,0,.266,0,1.8,1.8,0,0,0,.319-0.319,7.446,7.446,0,0,0,1.17-3.669ZM83.4,33.4a4.066,4.066,0,0,0,1.648-2.021,0.416,0.416,0,0,0,0-.585,0.65,0.65,0,0,0-.479.213A7.021,7.021,0,0,0,83.454,33.4H83.4Zm-1.649,3.084A2.43,2.43,0,0,0,83.135,34.2h0.053a3.087,3.087,0,0,0-1.436,2.287,11.087,11.087,0,0,0-1.436,2.287c0,0.053-.053.106-0.053,0.16,0,0.106.053,0.16,0.053,0.266a2.214,2.214,0,0,0,.319-0.106A4.786,4.786,0,0,0,81.752,36.486ZM59.789,32.391a3.6,3.6,0,0,0,1.064-1.968l0.053,0.053a1,1,0,0,0-1.01.957C59.842,31.753,59.842,32.072,59.789,32.391Zm1.436-3.031a2.6,2.6,0,0,0,1.33-2.34h0a11.834,11.834,0,0,0-1.33,2.393V29.36ZM55.109,40.581c-0.8.425-.691,1.329-0.957,1.968H54.046a2.093,2.093,0,0,0,1.064-2.021v0.053Zm9.413-16.645c0.319-.319.532-0.585,0.851-0.957a1.1,1.1,0,0,0-.106-0.319,0.471,0.471,0,0,0-.266.213,1.407,1.407,0,0,0-.425,1.117ZM55.428,39.783c0.266-.213.9-0.213,0.691-0.9a1.625,1.625,0,0,0-.638.957Zm24.037,1.17a1.371,1.371,0,0,0-.691,1.329l-0.053-.053a1.154,1.154,0,0,0,.691-1.329ZM57.5,36.433a1.119,1.119,0,0,0,.372-0.266c0.053-.106.16-0.266,0-0.372a0.252,0.252,0,0,0-.319.213,1.32,1.32,0,0,0-.053.479V36.433ZM63.884,25a1.116,1.116,0,0,0,.638-1.064l0.053,0.053a1.209,1.209,0,0,0-.638,1.063Zm0.053,0.053a1.91,1.91,0,0,0-.532.372v0.159q0.239,0.16.319,0c0.053-.213.106-0.425,0.16-0.585Zm-3.084,5.371a1.167,1.167,0,0,0,.372-1.064v0.053a0.991,0.991,0,0,0-.319,1.064Zm5.424-9.466a0.715,0.715,0,0,0-.319.372v0.16c0.319-.053.213-0.425,0.266-0.532h0.053ZM83.135,34.2a0.878,0.878,0,0,0,.266-0.8h0.053a0.977,0.977,0,0,0-.266.8H83.135ZM59.789,32.391a0.2,0.2,0,0,0-.053.16v0.106A0.479,0.479,0,0,1,59.789,32.391ZM53.3,44.3L53.248,44.2l-0.053.106H53.3Zm2.18-4.467a1.016,1.016,0,0,0-.372.745V40.528a0.769,0.769,0,0,0,.319-0.745ZM68.936,13.512a1.152,1.152,0,0,1-.266.745h0V13.566h0.266V13.512ZM54.152,42.548h0ZM29.1,46.7a0.25,0.25,0,0,1-.319-0.053V46.7H29.1Zm0-.425a1.371,1.371,0,0,1,.106.266,0.282,0.282,0,0,1-.106.159h0.053V46.218Zm33.5-19.3-0.053.053ZM44.314,26.7H43.995V27.02H43.941A1.8,1.8,0,0,0,44.26,26.7h0.053Zm0.372-.319H44.26l0.053-.053V26.7H44.26c0.16-.106.213-0.213,0.425-0.372v0.053Zm31-1.117,0.053,0.106-0.053-.053V25.265Zm-30.046-.213H45.271L45.324,25v0.319H45.271A1.982,1.982,0,0,0,45.643,25v0.053Zm-3.4,3.989c-0.106.106-.16,0.106-0.319,0H42.24Zm0.372-.319H42.293v0.319H42.24C42.4,28.935,42.506,28.775,42.612,28.722ZM31.5,12.183l-0.053.053H31.5V12.183Zm7.073,12.55a1.205,1.205,0,0,1,.053.213,0.186,0.186,0,0,0-.053.106h0V24.733ZM57.5,36.433l-0.053.106,0.053-.053V36.433Zm21.963,4.52,0.053-.106-0.106.053Zm21.752,8.456a15.07,15.07,0,0,1-3.563,2.765,6.056,6.056,0,0,1-2.34.957c-0.319-.9.266-1.7,0.585-2.5a41.611,41.611,0,0,1,2.5-4.839,40.333,40.333,0,0,1,2.766-4.361,22.246,22.246,0,0,0,1.542-2.34c0.372-.585.744-1.17,1.063-1.755,0.585-1.064,1.117-2.127,1.649-3.191a2.8,2.8,0,0,0,0-2.074,2.094,2.094,0,0,0-2.765-.851,1.931,1.931,0,0,0-.426.479c-0.425.744-.851,1.489-1.329,2.18-1.064,1.542-2.181,3.031-3.3,4.467a45.221,45.221,0,0,0-4.573,7.286,17.5,17.5,0,0,1-1.914,2.819H91.06c0.266,0,.479.106,0.372,0.425a3.033,3.033,0,0,1-.585,1.17A0.722,0.722,0,0,1,90.9,51a1.873,1.873,0,0,1-1.17.745,0.293,0.293,0,0,1-.266-0.106,0.479,0.479,0,0,1,.053-0.266c0.319-.585,1.01-0.744,1.383-1.329-0.8-.266-0.16-0.851-0.16-1.276h0.053a4.352,4.352,0,0,0-1.329,1.064,36.992,36.992,0,0,1-4.095,3.457,0.782,0.782,0,0,1-.851.266,0.723,0.723,0,0,1-.159-0.8,9.894,9.894,0,0,1,.851-3.031,78.455,78.455,0,0,1,4.892-8.4,20.151,20.151,0,0,0,1.914-2.978c0.8-1.6,1.436-3.244,2.393-4.786a2.907,2.907,0,0,0,.479-1.489,1.152,1.152,0,0,0-.691-1.329,2.7,2.7,0,0,0-3.191,1.01c-1.276,1.914-2.659,3.829-3.935,5.743A61.6,61.6,0,0,0,81.487,46.8,13.12,13.12,0,0,0,80.37,51.7a3.246,3.246,0,0,0,.691,2.18c0.479,0.691.957,1.436,1.489,2.074a3.6,3.6,0,0,0,3.4,1.489A2.537,2.537,0,0,0,88.082,56a1.976,1.976,0,0,1,.9-1.17,5.81,5.81,0,0,0,1.276-1.276c0.479-.638.532-0.585,1.064-0.053a16.9,16.9,0,0,1,1.436,1.968,3.163,3.163,0,0,0,3.35,1.383,4.578,4.578,0,0,0,2.021-.532,77.623,77.623,0,0,0,7.446-5.158,32.788,32.788,0,0,0,3.509-3.138c0.692-.638.639-0.638,0-1.117a0.975,0.975,0,0,1-.691-0.479,0.913,0.913,0,0,0-.851-0.851,2.459,2.459,0,0,0-1.383.213c-0.531.213-.8,0.425-0.425,1.01a1.146,1.146,0,0,1-.213.745l0.426-.106c0.159,0,.372.053,0.266,0.213a4.314,4.314,0,0,1-.958,1.01c-1.01.691,0.426-1.064-.212-0.744a19.479,19.479,0,0,0-2.34,1.436,0.483,0.483,0,0,0-.213.425,1.087,1.087,0,0,0,.479-0.106c0.159-.053.319-0.053,0.319,0.16a0.481,0.481,0,0,1-.053.266c-0.692.585-1.383,1.223-2.074,1.755a0.644,0.644,0,0,1-.745-0.106c-0.213-.106-0.106-0.319,0-0.532a3.047,3.047,0,0,0,.9-1.6Zm-18.028-.585a1.365,1.365,0,0,0-.106-0.266,0.757,0.757,0,0,1,.106-0.319c0.691-1.223,1.383-2.393,2.074-3.563a0.4,0.4,0,0,1,.213-0.213,0.225,0.225,0,0,1,.053.372c-0.638,1.223-1.329,2.393-2.021,3.616A1.694,1.694,0,0,1,83.189,48.824Zm17.443-12.178a0.517,0.517,0,0,1-.372.425,0.408,0.408,0,0,1-.107-0.16,2.311,2.311,0,0,1,.266-0.372A0.769,0.769,0,0,1,100.632,36.646ZM96.8,41.379a1.205,1.205,0,0,0,.213-0.053l0.053,0.106a1.205,1.205,0,0,0-.213.053A0.186,0.186,0,0,1,96.8,41.379Zm9.891,4.733a0.2,0.2,0,0,1-.106.106,0.164,0.164,0,0,1-.106-0.053l0.106-.053h0.106Zm-23.505.106v0.106H83.136Zm18.187,3.35,0.054-.053c0.053-.053.106-0.159,0.212-0.266a0.111,0.111,0,0,0,0-.213,0.164,0.164,0,0,0-.106.053l-0.266.266Zm-10.582-.8,0.319-.319H91.06a0.479,0.479,0,0,1-.319.319h0.053Zm28.876-3.35h0a3.938,3.938,0,0,1,0,.8,18.556,18.556,0,0,1-.266,4.2,1.243,1.243,0,0,1-.85,1.17,1.161,1.161,0,0,0-.373.479A4.631,4.631,0,0,1,113.4,53.5c-0.638-.16-0.691-0.266-0.585-1.01,0.053-.319.213-0.585-0.106-0.8a0.984,0.984,0,0,0-1.17-.213A1.184,1.184,0,0,0,111,52.972a7.689,7.689,0,0,0,2.287,2.925,10.553,10.553,0,0,0,2.818,1.329,11.124,11.124,0,0,0,4.946.213,2.255,2.255,0,0,0,2.074-1.649,7.747,7.747,0,0,1,.532-1.17,6.768,6.768,0,0,0,.638-2.712,26.558,26.558,0,0,0-.16-3.563c-0.212-1.914-.053-3.776-0.106-5.637a21.7,21.7,0,0,1,.319-3.244,8.627,8.627,0,0,1,1.276-3.829A18.32,18.32,0,0,1,127.7,32.71a0.8,0.8,0,0,0,.16-1.01,2.452,2.452,0,0,0-4.148-.9c-2.819,2.925-5.8,5.69-8.881,8.4-0.957.851-3.138,2.446-3.776,3.616a0.848,0.848,0,0,1-.478.372c-1.011.425-1.6,1.489-2.606,1.914a1.014,1.014,0,0,0-.372,1.383,2.458,2.458,0,0,0,2.074,1.436,1.141,1.141,0,0,0,1.382-.425,17.042,17.042,0,0,1,2.5-2.287,54.775,54.775,0,0,0,4.892-4.414,0.67,0.67,0,0,1,1.117.266,4.7,4.7,0,0,1,.106.9V45.42Zm7.552,6.382a7.967,7.967,0,0,1,.053,1.01c0.107,1.329.426,2.5,1.915,3.031a7.121,7.121,0,0,1,1.223.691,3.417,3.417,0,0,0,3.35.106,20.16,20.16,0,0,0,5.371-4.361c0.8-.851,1.543-1.755,2.34-2.606a46.578,46.578,0,0,0,5.265-6.382,11.131,11.131,0,0,0,1.33-3.563,0.428,0.428,0,0,0-.585-0.479,6.441,6.441,0,0,0-2.234,1.17c-1.064,1.117-2.18,2.18-3.191,3.3-2.021,2.127-3.935,4.307-5.956,6.435-0.8.851-1.648,1.7-2.5,2.5a6.969,6.969,0,0,1-1.277.9c-0.159.106-.319,0-0.319-0.213a3.525,3.525,0,0,1,.16-1.276,36.313,36.313,0,0,1,2.18-5.637,83.849,83.849,0,0,1,5.478-10.051,10.615,10.615,0,0,0,1.063-2.818,1.474,1.474,0,0,0-.212-1.489,7.04,7.04,0,0,0-1.915-1.383,0.638,0.638,0,0,0-.319,0A3.426,3.426,0,0,0,136,32.763a5.009,5.009,0,0,1-.745,1.383c-1.436,2.5-2.925,4.893-4.254,7.445a48.768,48.768,0,0,0-3.138,7.02A10.309,10.309,0,0,0,127.222,51.8Zm3.989-1.17V50.366c0.159,0.106-.054.16-0.054,0.266a0.4,0.4,0,0,1-.106.213C130.892,50.685,131.157,50.685,131.211,50.632Zm15-10-0.053.053a1.282,1.282,0,0,1-.213.9,21.391,21.391,0,0,1-2.552,3.244,25.992,25.992,0,0,0-2.553,2.819c-0.744.9-1.648,1.648-2.446,2.5a0.48,0.48,0,0,1-.266.053,0.455,0.455,0,0,1,0-.266,6.617,6.617,0,0,1,1.01-1.383,20.117,20.117,0,0,1,2.766-2.872,3.692,3.692,0,0,0,1.063-1.33c0.639-1.117,1.6-2.021,2.287-3.084a1.2,1.2,0,0,1,.9-0.585Zm-15.475,11.38v0.106c-0.106.053-.159,0-0.106-0.106a0.186,0.186,0,0,1,.053-0.106C130.732,51.908,130.732,51.961,130.732,52.014Zm13.295-25.952a0.9,0.9,0,0,0,1.064-.425,3.5,3.5,0,0,0,.691-0.851,1.24,1.24,0,0,1,.851-0.691,1.6,1.6,0,0,0,1.329-1.17,1.379,1.379,0,0,0-.638-2.127c-0.585-.319-1.17-0.532-1.7-0.851a1.067,1.067,0,0,0-1.436.16,3.984,3.984,0,0,0-.638.691,17.247,17.247,0,0,0-1.17,3.138A1.6,1.6,0,0,0,144.027,26.063Zm37.917,18.826a0.789,0.789,0,0,0-.319-0.053,6.443,6.443,0,0,0-.851.851c-0.8,1.117-.9.691-1.861,1.7h0c-0.957.372-.585,0.213-1.117,1.01h-0.053v0.053H177.8c0,0.053.053,0.16,0.053,0.213s-0.053.053-.053,0.106h-0.053a0.242,0.242,0,0,1-.319,0h0v0.053a8.256,8.256,0,0,0-2.181,1.33,14.7,14.7,0,0,1-3.882,2.872l0.053-.053a2.51,2.51,0,0,1-.372-0.372h-0.053c0.319-.638,1.117-0.957,1.33-1.7a2.041,2.041,0,0,0-1.33.585,40.663,40.663,0,0,1-4.042,2.659,8.384,8.384,0,0,1-1.861.851c-1.489.372-2.021,0.106-1.755-1.489a4.2,4.2,0,0,1,.372-1.329c1.064-1.6,1.489-3.563,2.553-5.212,0.585-1.01,1.01-2.074,1.595-3.084,0.9-1.489,1.33-3.138,2.074-4.68,0.532-1.117.745-2.287,1.17-3.4a2.329,2.329,0,0,0,.107-0.851c-0.107-1.861-1.383-2.712-2.819-3.35a3.471,3.471,0,0,1-1.542-.744,0.658,0.658,0,0,0-.8-0.16,8.744,8.744,0,0,0-3.829,2.5,0.407,0.407,0,0,0-.106.266,11.745,11.745,0,0,0-1.117,1.17,37.354,37.354,0,0,0-2.978,2.819,2.78,2.78,0,0,0-.744.585h-0.053a0.946,0.946,0,0,0-.266.372,5.955,5.955,0,0,1-.532.585l-0.8.8a31.036,31.036,0,0,0-2.978,3.4c-1.117,1.383-2.287,2.819-3.457,4.148-0.425.372-.8,0.8-1.17,1.17a0.334,0.334,0,0,1-.319,0,0.563,0.563,0,0,1-.106-0.266,3.621,3.621,0,0,1,.479-0.9,19.926,19.926,0,0,0,1.7-2.606,28.506,28.506,0,0,1,1.543-2.5c1.755-2.233,3.084-4.733,4.733-7.02a0.9,0.9,0,0,0,.159-1.117c-0.691-.9-0.8-2.18-2.021-2.659-0.478-.9-1.329-0.851-2.127-0.8a0.93,0.93,0,0,0-1.01.745,6.644,6.644,0,0,1-1.277,2.606,116.627,116.627,0,0,0-6.434,10.423,40.3,40.3,0,0,0-2.5,5.318,9.138,9.138,0,0,0-.585,3.563,2.281,2.281,0,0,0,.851,1.6,16.817,16.817,0,0,0,1.968,1.436,1.883,1.883,0,0,0,2.818-.585,6.906,6.906,0,0,1,1.011-1.17,36.466,36.466,0,0,0,4.626-5.318c1.436-2.021,3.085-3.882,4.414-6.009a5.125,5.125,0,0,1,.957-1.17,16.835,16.835,0,0,0,2.5-2.659,2.034,2.034,0,0,1,.585-0.585,23.934,23.934,0,0,0,3.669-3.669,3.907,3.907,0,0,1,1.755-1.01c0.16-.106.319,0.106,0.266,0.319a9.194,9.194,0,0,1-.372,1.117c-1.064,2.18-2.074,4.361-3.244,6.488a50.962,50.962,0,0,0-2.393,5.531,12.219,12.219,0,0,0-.745,3.35,4.69,4.69,0,0,0,.16,1.914,8.2,8.2,0,0,0,5.584,5.371,4.761,4.761,0,0,0,4.733-.8,6.822,6.822,0,0,1,2.286-1.223c1.33-.532,2.021-1.7,3.191-2.446,0.532-1.33,1.861-1.968,2.659-3.084a4.507,4.507,0,0,1,1.383-1.276,1.46,1.46,0,0,0,.532-0.425,4.657,4.657,0,0,1,1.435-1.755c1.011-1.01.479-.957,1.064-2.233C182,44.995,181.944,44.888,181.944,44.888Zm-11.753,8.668a0.294,0.294,0,0,1,.107-0.319,6.639,6.639,0,0,1,.691-0.585,2.455,2.455,0,0,1,.372.372c-0.266.16-.532,0.372-0.8,0.532C170.457,53.61,170.3,53.769,170.191,53.557Zm8.722-8.243-0.053.053c0.053,0,.053-0.053.106-0.053h-0.053Zm-0.053.053a2.971,2.971,0,0,0-2.074,1.649,1.857,1.857,0,0,0,1.223-.745A6.86,6.86,0,0,0,178.86,45.367ZM172.372,50.9a0.052,0.052,0,0,0,.053-0.053c-0.053,0-.053,0-0.053.053h0Zm0.053-.053a1.54,1.54,0,0,0,.8-0.638A0.982,0.982,0,0,0,172.425,50.844Zm0.9-.691h-0.053c0,0.053,0,.053-0.053.053h0.106V50.153Zm0.585-.638a0.639,0.639,0,0,0-.585.638A1.685,1.685,0,0,0,173.914,49.515Zm5.371-4.52,0.053-.106-0.053.053a2.46,2.46,0,0,1-.372.372h0.053Zm-1.542,3.457a1.413,1.413,0,0,1-.266.319h0.266V48.451Zm-3.723.957-0.053.053a0.052,0.052,0,0,0-.053.053h0.053Zm2.766-2.393h-0.054l-0.372.372,0.053,0.053A2.679,2.679,0,0,1,176.786,47.016Zm17.07,0.638-0.106.053a5.632,5.632,0,0,1-1.01,2.393,110.675,110.675,0,0,0-5.372,9.891,9.662,9.662,0,0,1-2.074,2.765c-1.382,1.276-2.658,2.659-3.988,3.935-1.755,1.755-3.084,3.882-4.786,5.637a36.9,36.9,0,0,0-3.3,4.308,5.163,5.163,0,0,0-1.064,3.616,3.91,3.91,0,0,0,6.063,2.925,11.952,11.952,0,0,0,3.137-2.978,58.551,58.551,0,0,0,4.042-6.169c1.542-2.5,2.872-5.212,4.254-7.817a17.762,17.762,0,0,1,3.138-4.467,1.042,1.042,0,0,0,.478-0.691,1.6,1.6,0,0,1,1.17-1.436,14.872,14.872,0,0,0,3.4-2.446c0.9-.745,1.914-1.489,2.818-2.34,2.287-2.127,5.212-3.616,6.967-6.328a4,4,0,0,1,.479-0.479c2.127-1.7,3.616-4.042,5.424-5.956a1.545,1.545,0,0,0,.585-1.064c0-.213-0.053-0.372-0.319-0.319a4.215,4.215,0,0,0-3.085,1.6c-0.159.16-.266,0.372-0.425,0.532,0.372,0,.9-0.425,1.117-0.053,0.319,0.425-.16.851-0.426,1.17a1.47,1.47,0,0,1-1.01.638,1.347,1.347,0,0,1-1.755.691,1.232,1.232,0,0,0-.372.372l-0.054.053,0.054-.053a2.462,2.462,0,0,0,.372-0.372,2.022,2.022,0,0,1,1.755-.691,0.876,0.876,0,0,1,0-1.064,4.408,4.408,0,0,0,.372-0.691,2.633,2.633,0,0,0-1.489.851c-0.957.8-1.914,1.542-2.818,2.34-1.649,1.436-3.67,2.287-5.159,3.935a2.1,2.1,0,0,1-.744.425c-0.213.106-.426,0.319-0.585,0.053a0.516,0.516,0,0,1-.054-0.479,14.425,14.425,0,0,1,.9-2.074,12.38,12.38,0,0,0,1.6-5.318c0.106-1.117.159-1.968-1.17-2.287a1.384,1.384,0,0,0-2.127-.425c-1.277.851-2.712,1.648-2.606,3.563a1.442,1.442,0,0,1-.266.585,12.4,12.4,0,0,1-3.138,3.51c-0.8.638-1.489,1.276-2.233,1.968a12.834,12.834,0,0,1-3.35,2.5,0.751,0.751,0,0,1-.213.16c0,0.053-.106,0-0.106,0,0.106-.213.212-0.16,0.372-0.16A1.8,1.8,0,0,1,187.847,51c1.223-1.064,2.446-2.18,3.616-3.3,0.638-.585,1.17-1.33,1.862-1.861,0.691-.585,1.17-1.329,1.808-1.914a0.753,0.753,0,0,0,.053-0.479c-0.106-.16-0.319-0.053-0.426.053-1.542,1.276-3.084,2.553-4.52,3.882a67.368,67.368,0,0,1-6.913,5.424,9.161,9.161,0,0,1-2.021,1.064,0.467,0.467,0,0,1-.585-0.425,3.935,3.935,0,0,1,.213-0.851,18.121,18.121,0,0,1,3.4-5.318c1.223-1.383,2.606-2.659,3.829-4.095a22.09,22.09,0,0,1,7.392-6.062,17.24,17.24,0,0,0,2.712-1.6,6.324,6.324,0,0,1,4.893-1.861,0.592,0.592,0,0,0,.691-0.425,0.738,0.738,0,0,0-.213-0.8,4.152,4.152,0,0,0-1.914-1.17c-0.851-.266-1.755-0.585-2.659-0.8a4.694,4.694,0,0,0-3.3-.053A34.642,34.642,0,0,0,192,32.178a38.532,38.532,0,0,0-7.711,6.328c-1.383,1.436-2.606,3.031-3.882,4.573a21.5,21.5,0,0,0-3.829,7.232,5.871,5.871,0,0,0,.9,5.212,3.957,3.957,0,0,0,3.35,1.914,5.436,5.436,0,0,0,3.457-1.17,64.536,64.536,0,0,0,5.85-5,38.2,38.2,0,0,1,3.669-3.51Zm-12.444-2.712,0.107-.053a2.28,2.28,0,0,1,.372-0.319,1.277,1.277,0,0,1,.638-1.064,2.41,2.41,0,0,0,.372-0.372c0.107-.106.266-0.213,0.373-0.319l0.319-.319a2.454,2.454,0,0,1,.372-0.372,2.954,2.954,0,0,1,.213-0.638c0.053-.106.159-0.106,0.266,0a0.26,0.26,0,0,1-.054.16l-0.425.425a2.71,2.71,0,0,1-.425.372l-0.32.319c-0.106.106-.212,0.266-0.319,0.372a2.709,2.709,0,0,0-.425.372,1.128,1.128,0,0,1-.638,1.011,2.5,2.5,0,0,1-.372.372Zm26.8,1.436h-0.106l0.106-.053v0.053ZM181.838,67.809l-0.107.053,0.054-.106Zm1.063-1.117,0.054-.053v0.106Zm-3.563-18.985h0.054l-0.054.053V47.707ZM185.667,40c-0.107.106-.213,0.266-0.319,0.372l-0.054-.053c0.107-.106.266-0.213,0.373-0.319a2.621,2.621,0,0,1,.372-0.425h0.053l-0.053.053A2.463,2.463,0,0,1,185.667,40Zm-5.584,6.647v0ZM177.264,73.02l-0.053-.053Zm3.882,4.946c-0.159.106-.265,0.213-0.425,0.319a0.681,0.681,0,0,1-.319.745,0.856,0.856,0,0,1-.319.691l-0.053.053,0.053-.053a0.737,0.737,0,0,1,.372-0.638,0.681,0.681,0,0,1,.319-0.745l0.372-.372c0.054-.106.054-0.213,0.107-0.319C181.466,77.86,181.2,77.86,181.146,77.966Zm6.6-11.646a0.683,0.683,0,0,1-.266.745,2.06,2.06,0,0,1-.691,1.436,21.862,21.862,0,0,1-1.915,3.669,0.607,0.607,0,0,1-.319.16,0.677,0.677,0,0,1-.053-0.319,5.424,5.424,0,0,1,2.287-3.51,1.112,1.112,0,0,1,.691-1.383,0.912,0.912,0,0,1,.319-0.8,1.86,1.86,0,0,1,.213-0.479,0.275,0.275,0,0,1,.212-0.106,0.481,0.481,0,0,1-.053.266A2.954,2.954,0,0,1,187.741,66.32Zm10.21-12.976c-0.053.213-.106,0.425-0.159,0.585a0.329,0.329,0,0,1-.266.053v-0.16L198,53.344h-0.053ZM190.24,61.8h0.053a2.224,2.224,0,0,1,.479-1.276,0.606,0.606,0,0,1,.319-0.16c0,0.106.053,0.266,0.053,0.319-0.266.372-.585,0.745-0.851,1.117H190.24Zm-9.466,9.466a0.451,0.451,0,0,1-.372.372,1.167,1.167,0,0,1-.585.957,0.238,0.238,0,0,1-.266,0,0.578,0.578,0,0,1-.053-0.319,1.063,1.063,0,0,1,.9-0.638,0.456,0.456,0,0,1,.372-0.319,1.5,1.5,0,0,1,.532-1.117,0.4,0.4,0,0,1,.266-0.053c0,0.106.053,0.213,0.053,0.319A1.275,1.275,0,0,1,180.774,71.265Zm-3.51,7.073c0.054-.213.16-0.425,0.213-0.638a0.531,0.531,0,0,1,.16-0.053,0.135,0.135,0,0,1,.106.213,0.845,0.845,0,0,1-.479.479,2.648,2.648,0,0,1-1.595,1.915C175.244,80.359,176.148,79.136,177.264,78.338Zm5.212-2.765,0.106-.053a3.611,3.611,0,0,1,.426-1.276c0.372-.744.957-1.223,1.01-0.9a1.315,1.315,0,0,1-.585,1.117,2.925,2.925,0,0,1-.9,1.064Zm4.308-11.008-0.054.053a6.437,6.437,0,0,1-2.446,3.138h0c0.479-1.329,1.064-2.553,2.5-3.084V64.565Zm-5.638,10.583a20.558,20.558,0,0,1-4.094,6.116,0.913,0.913,0,0,1-1.223.16l0.053,0.053c0.638-.691,1.223-1.383,1.914-2.021a5.57,5.57,0,0,0,1.064-1.6,37.35,37.35,0,0,1,2.393-4.573c0.425-.638.957-1.17,1.436-1.755a0.1,0.1,0,0,1,.159,0,0.115,0.115,0,0,1,.107.106V71.85a29.752,29.752,0,0,1-1.862,3.35Zm8.084-16.539a11.2,11.2,0,0,1,1.276-2.818c0.479-.8.8-1.7,1.276-2.5a30.454,30.454,0,0,1,3.51-5.158,0.363,0.363,0,0,1,.266-0.16c0.213,0.106.16,0.266,0.106,0.425a35.879,35.879,0,0,1-2.393,4.467c-0.744,1.383-1.595,2.712-2.339,4.095A3.046,3.046,0,0,1,189.23,58.609ZM207.2,47.335a1.594,1.594,0,0,1-.212.425c-0.9.9-1.755,1.861-2.712,2.712-2.021,1.7-3.989,3.457-6.116,5a36.783,36.783,0,0,0-3.084,2.659,0.566,0.566,0,0,1-.266.106c-0.266-.16-0.107-0.319,0-0.426,0.638-1.436,1.861-2.233,2.978-3.191,0.425-.372.9-0.744,1.329-1.117a0.971,0.971,0,0,0,.372-0.532c0.319-1.489.479-1.7,1.7-1.808a2.1,2.1,0,0,0,1.17-.638,36.919,36.919,0,0,1,4.308-3.3A0.37,0.37,0,0,1,207.2,47.335ZM177.849,74.456a0.484,0.484,0,0,1,.16.266,1.216,1.216,0,0,1-.319.8c-0.745.745-1.542,1.436-2.287,2.127a0.453,0.453,0,0,1-.372,0,0.712,0.712,0,0,1-.16-0.266,3.864,3.864,0,0,1,.373-1.542,0.768,0.768,0,0,1,.425-0.479c0.9,0.159,1.383-.638,2.021-0.9A0.169,0.169,0,0,1,177.849,74.456ZM212.629,41.8l-0.107.106c-0.159,0-.159-0.053-0.106-0.16a0.2,0.2,0,0,1,.16-0.053A0.165,0.165,0,0,0,212.629,41.8ZM181.146,75.148l-0.106-.053,0.053,0.106Zm36.11-29.727h0a4.012,4.012,0,0,1,0,.8,18.614,18.614,0,0,1-.266,4.2,1.244,1.244,0,0,1-.851,1.17,1.159,1.159,0,0,0-.372.479,4.632,4.632,0,0,1-4.786,1.436c-0.638-.16-0.692-0.266-0.585-1.01,0.053-.319.212-0.585-0.107-0.8a0.984,0.984,0,0,0-1.17-.213,1.184,1.184,0,0,0-.531,1.489,7.7,7.7,0,0,0,2.286,2.925,10.545,10.545,0,0,0,2.819,1.329,11.123,11.123,0,0,0,4.946.213,2.255,2.255,0,0,0,2.074-1.649,7.844,7.844,0,0,1,.531-1.17,6.753,6.753,0,0,0,.639-2.712,26.558,26.558,0,0,0-.16-3.563c-0.213-1.914-.053-3.776-0.106-5.637a21.568,21.568,0,0,1,.319-3.244,8.6,8.6,0,0,1,1.276-3.829,18.256,18.256,0,0,1,2.074-2.925,0.805,0.805,0,0,0,.16-1.01,2.452,2.452,0,0,0-4.148-.9c-2.819,2.925-5.8,5.69-8.881,8.4-0.958.851-3.138,2.446-3.776,3.616a0.851,0.851,0,0,1-.479.372c-1.01.425-1.595,1.489-2.606,1.914a1.015,1.015,0,0,0-.372,1.383,2.458,2.458,0,0,0,2.074,1.436,1.142,1.142,0,0,0,1.383-.425,16.984,16.984,0,0,1,2.5-2.287,54.649,54.649,0,0,0,4.893-4.414,0.67,0.67,0,0,1,1.117.266,4.7,4.7,0,0,1,.106.9V45.42Zm54.828-4.786,0.054,0.053a1.4,1.4,0,0,0-1.011.372c-0.691.479-1.117,1.223-1.755,1.7-1.382,1.064-2.765,2.18-4.2,3.138a13.56,13.56,0,0,1-2.765,1.649c-0.16.053-.373,0.106-0.426-0.053a0.336,0.336,0,0,1,0-.319c0.8-1.223,1.011-2.712,1.649-3.988a1.077,1.077,0,0,0,.266-0.744,5.694,5.694,0,0,1,.531-2.819,8.274,8.274,0,0,0,.266-3.031,2.2,2.2,0,0,0-.85-1.808c-0.8-.319-1.543-1.01-2.553-0.691a4.487,4.487,0,0,0-.9.266,0.639,0.639,0,0,1-.319,0,1.367,1.367,0,0,1,.106-0.266,4.132,4.132,0,0,1,.638-0.691,0.8,0.8,0,0,0,.16-1.17,3.454,3.454,0,0,0-4.2-1.276c-0.426.213-.851,0.479-1.277,0.638a11.62,11.62,0,0,0-4.467,2.819c-0.638.638-1.329,1.223-2.021,1.808a8.725,8.725,0,0,0-1.542,1.861,55.59,55.59,0,0,0-3.35,6.009,4.675,4.675,0,0,0-.638,2.127c-0.053,1.223,0,2.393-.053,3.616a5.047,5.047,0,0,0,.265,1.755c1.117,3.031,3.457,4.786,6.329,5.956a1.36,1.36,0,0,0,.8,0,10.081,10.081,0,0,0,5.956-2.925c0.478-.479,1.063-0.9,1.542-1.383a1.353,1.353,0,0,1,1.17-.425c0.585,0.053,1.17.053,1.755,0.053a4.709,4.709,0,0,0,1.7-.425,21.064,21.064,0,0,0,4.68-2.818c1.383-1.117,2.925-2.074,3.616-3.882a2.781,2.781,0,0,1,.745-0.851c0.479-.479.957-1.01,1.436-1.489a1.516,1.516,0,0,0,.532-1.436c-0.054-.479.212-1.17-0.213-1.329-0.638-.266-1.011.425-1.276,0.9a10.084,10.084,0,0,1-1.7,1.968,4.464,4.464,0,0,1-2.819,1.6c-0.053.106-.053,0.213-0.106,0.319,0,0.053-.106.053-0.106,0.053-0.16-.053-0.16-0.16-0.054-0.213,0.054-.053.213-0.053,0.266-0.106a8.432,8.432,0,0,1,1.543-1.808c0.425-.372.957-0.691,1.382-1.117A2.491,2.491,0,0,0,272.084,40.634ZM258.9,35.476a0.282,0.282,0,0,1-.319.319,1.459,1.459,0,0,1-.532.957,27.688,27.688,0,0,0-3.138,5.956,8.567,8.567,0,0,0-.478,5.158,1.993,1.993,0,0,1-.745,2.287c-0.425.372-.851,0.8-1.276,1.17a0.908,0.908,0,0,0-.372.691,1.2,1.2,0,0,1-1.277,1.17,3.251,3.251,0,0,0-1.808.532c-0.8.425-1.223,0.213-1.542-.744a4.545,4.545,0,0,1-.053-2.074,19.726,19.726,0,0,0,.372-2.553,1.873,1.873,0,0,1,.319-0.851,23.418,23.418,0,0,1,2.34-3.616c0.638-.744,1.117-1.6,1.7-2.34a15.673,15.673,0,0,1,4.467-4.307c0.744-.372,1.276-1.01,2.021-1.383a0.3,0.3,0,0,1,.372-0.319c0-.16.053-0.319,0.053-0.425a0.455,0.455,0,0,1,.16.16A0.214,0.214,0,0,1,258.9,35.476Zm-14.571,9.2v0.053c0.053-.053.159-0.106,0.212-0.16a0.052,0.052,0,0,1-.053.053A0.194,0.194,0,0,1,244.325,44.676ZM263.1,37.922a17.583,17.583,0,0,1-.691,2.765,44.713,44.713,0,0,1-3.3,6.063,1.653,1.653,0,0,1-.266.372,0.294,0.294,0,0,1-.266.106,0.245,0.245,0,0,1-.16-0.372,15.5,15.5,0,0,1,1.542-4.042,10.023,10.023,0,0,0,.9-1.861,3.215,3.215,0,0,1,.639-1.276,2.413,2.413,0,0,0,1.063-1.808,0.246,0.246,0,0,1,.266-0.16A0.74,0.74,0,0,1,263.1,37.922Zm-19.2,8.615-0.053-.106h0.106Zm44.724,3.244V49.462H288.57v0.319c0.9-.479,2.074-0.585,2.18-1.914a0.474,0.474,0,0,1,.213-0.266,6.13,6.13,0,0,1,1.861-1.649,1.183,1.183,0,0,0,.8-1.436c0-.425-0.213-0.585-0.638-0.425-0.319.053-.319-0.266-0.16-0.425,0.426-.479.9-0.957,1.33-1.383,0.106-.213.425-0.425,0.213-0.691a0.743,0.743,0,0,0-.692-0.053,1.472,1.472,0,0,0-.691.16,17.637,17.637,0,0,0-3.776,2.606,12,12,0,0,1-2.233,1.542c-1.649.957-8.934,5-10.689,5.85a7.252,7.252,0,0,1-1.915.532,0.743,0.743,0,0,1-.213.106c0-.16.107-0.053,0.213-0.053,2.393-1.914,4.733-3.935,6.967-6.062a32.319,32.319,0,0,0,2.5-2.978,45.712,45.712,0,0,0,4.148-5.424,47.818,47.818,0,0,0,4.893-8.615,13.245,13.245,0,0,0,.9-3.138,2.814,2.814,0,0,0-.426-2.446,9.5,9.5,0,0,0-3.084-3.244,2.148,2.148,0,0,0-1.968-.053,3.907,3.907,0,0,0-.691.532c-1.915,2.074-3.723,4.308-5.424,6.488a58.915,58.915,0,0,0-3.776,5.956A7.2,7.2,0,0,1,277.03,35a1.043,1.043,0,0,0-.478.691,11.136,11.136,0,0,1-1.6,2.819,0.821,0.821,0,0,0-.425.638,9.512,9.512,0,0,1-1.808,3.3c-0.8,1.276-1.7,2.553-2.447,4.042-0.531,1.064-1.329,2.127-1.967,3.244a4.375,4.375,0,0,0-.532,1.383c-0.266.479-.479,1.01-0.745,1.489a47.1,47.1,0,0,0-2.286,4.308,37.847,37.847,0,0,1-1.489,3.669,14.072,14.072,0,0,0-1.6,4.467,7.458,7.458,0,0,1-.8,1.755,4.617,4.617,0,0,0-.585,1.7,13.472,13.472,0,0,1-.319,2.021,14.525,14.525,0,0,0-.213,3.031,3.955,3.955,0,0,0,1.329,2.872,6.548,6.548,0,0,0,6.541,1.276c0.319-.16.639-0.372,0.9-0.532a18.841,18.841,0,0,0,3.883-5.105c0.585-1.17,1.169-2.287,1.754-3.4a9.2,9.2,0,0,0,1.277-4.627c-0.053-1.17.053-2.393,0.106-3.51a2.218,2.218,0,0,0-.691,1.117,7.654,7.654,0,0,1-1.7,3.084,10.121,10.121,0,0,0-.638,1.329,5.741,5.741,0,0,1-1.17,1.7h0.053a7.915,7.915,0,0,1,.745-2.712,24.27,24.27,0,0,0,1.967-6.967,1.219,1.219,0,0,1,1.011-1.276,0.557,0.557,0,0,1,.744.532,4.783,4.783,0,0,1-.106,1.276,19.666,19.666,0,0,1-.266,1.968,3.755,3.755,0,0,0,.372-0.479,7.468,7.468,0,0,0,.532-2.5c0.053-1.064.053-1.117,1.064-1.383a19.466,19.466,0,0,0,5.8-3.031Zm-7.392-6.541-0.053.053a2.654,2.654,0,0,1-.372.319l-0.213.213a0.858,0.858,0,0,0-.319.319,1.122,1.122,0,0,1-.319.851,33.045,33.045,0,0,1-2.393,2.34c-0.106.16-.372,0.213-0.425,0.053a0.46,0.46,0,0,1,.159-0.319,37.844,37.844,0,0,1,2.978-2.872,2.69,2.69,0,0,0,.319-0.372,1.286,1.286,0,0,1,.372-0.16c0.054-.16.16-0.213,0.213-0.372Zm2.34-2.978A0.776,0.776,0,0,0,283.89,40a2.043,2.043,0,0,0,.319-0.585,1.126,1.126,0,0,1,.373-0.266,0.792,0.792,0,0,1,.531-0.9V38.188a1.4,1.4,0,0,1-.531.851,3.768,3.768,0,0,0-.479.372c-0.053.213-.159,0.319-0.213,0.585a1.431,1.431,0,0,0-.319.266,1.715,1.715,0,0,1-.319.319h0A0.472,0.472,0,0,0,283.571,40.262Zm-7.711,8.4c0.053-.053.16-0.213,0.319-0.372,0-.053,0-0.16.053-0.16,0.054-.213.213-0.266,0.32,0l-0.16.16h-0.266a2.455,2.455,0,0,0-.372.372,1.251,1.251,0,0,0-.266.266l-0.053.106,0.053-.106A1.226,1.226,0,0,0,275.86,48.664Zm-11.433,25.26a5.9,5.9,0,0,1,.585-2.765,5.673,5.673,0,0,0,.478-1.861c0.426-1.064.851-2.18,1.383-3.3a76.369,76.369,0,0,1,3.031-7.073,2.921,2.921,0,0,0,.266-0.691c0.372-1.01.425-1.117,1.542-1.01,1.7,0.106,1.968.319,1.7,2.127a36.711,36.711,0,0,1-2.021,5.743,42.64,42.64,0,0,1-4.839,8.562,4.285,4.285,0,0,1-1.542,1.542c-0.319.213-.585,0.106-0.692-0.319V74.775C264.32,74.563,264.427,74.3,264.427,73.924Zm25.419-47.649a17.259,17.259,0,0,1-1.063,2.872c-1.117,2.18-2.553,4.2-3.67,6.435-0.531.957-1.169,1.861-1.754,2.819a34.673,34.673,0,0,1-2.606,3.616,15.179,15.179,0,0,1-2.606,2.287c-0.106.16-.213,0.213-0.319,0.16a0.428,0.428,0,0,1-.053-0.425c0.638-1.117,1.276-2.287,1.967-3.4,1.436-2.393,2.925-4.68,4.467-7.02a61.641,61.641,0,0,1,4.521-6.7,9.311,9.311,0,0,1,.744-0.851,0.331,0.331,0,0,1,.213-0.16C289.74,25.956,289.74,26.116,289.846,26.276Zm-7.232,15.209-0.106-.106-0.107.106h0.213Zm52.542,6.382a1.041,1.041,0,0,0-1.277.16c-0.744.585-1.435,1.223-2.127,1.808a30.49,30.49,0,0,1-4.839,3.4,0.434,0.434,0,0,1-.638-0.053,0.735,0.735,0,0,1,0-.479A23.09,23.09,0,0,1,329.2,47.6a13.325,13.325,0,0,0,2.818-5.85,1.489,1.489,0,0,0-.532-1.7,5.47,5.47,0,0,1-.691-0.479,1.578,1.578,0,0,0-2.233-.479,1.444,1.444,0,0,1-.851.16,0.666,0.666,0,0,0-.585.319c-0.585.745-1.17,1.542-1.7,2.34l-0.053-.053a3.02,3.02,0,0,0,.638-0.213,1.872,1.872,0,0,1,1.01-.532c0.266,0.053.053,0.745-.585,1.276a47.365,47.365,0,0,1-3.935,3.4c-1.6,1.117-3.031,2.446-4.52,3.669-1.17.957-2.287,1.968-3.4,2.925a2.767,2.767,0,0,1-1.808.957,1.477,1.477,0,0,1-.053.479h0.372a0.4,0.4,0,0,1,.213.106,0.444,0.444,0,0,1-.266,0,0.565,0.565,0,0,1-.266-0.106,0.323,0.323,0,0,1,.053-0.425,2.987,2.987,0,0,1,1.543-2.18c1.6-1.117,2.924-2.606,4.467-3.776,1.01-.8,2.02-1.7,3.084-2.446a12.416,12.416,0,0,0,2.021-2.074l0.053,0.053c-0.9.106-1.329,0.851-1.968,1.329a70.658,70.658,0,0,0-6.062,4.414c-1.276,1.276-2.659,2.393-3.989,3.616a2.161,2.161,0,0,1-1.329.8c-0.16.053-.372,0.106-0.425-0.106a0.723,0.723,0,0,1,0-.479,36.984,36.984,0,0,1,4.094-6.222,62.46,62.46,0,0,1,7.392-7.6c1.223-1.01,2.5-1.914,3.67-2.925a6.525,6.525,0,0,1,1.7-.9c1.224-.372,2.447-0.745,3.67-1.01a2.549,2.549,0,0,1,2.925,1.01,3.483,3.483,0,0,0,.9.851,0.908,0.908,0,0,0,1.223.106,1.043,1.043,0,0,0-.213-1.117c-1.329-2.233-3.456-3.244-5.743-3.988a8.189,8.189,0,0,0-3.776-.266,15.8,15.8,0,0,0-7.232,3.616,56.055,56.055,0,0,0-6.488,6.328,59.239,59.239,0,0,0-5.531,7.977,6.648,6.648,0,0,0-.053,6.807c0.957,1.968,2.34,2.606,4.467,1.542,0.266-.16.479-0.319,0.744-0.479a10.582,10.582,0,0,0,2.659-2.18,4.057,4.057,0,0,1,.905-0.8,5.611,5.611,0,0,0,1.595-1.33,3.248,3.248,0,0,0,1.223-2.021,6.014,6.014,0,0,0,2.234-1.17,3.6,3.6,0,0,1,.638-0.638c0.478-.372,1.01-0.745,1.542-1.117,0.213-.106.425-0.266,0.585,0a0.507,0.507,0,0,1,0,.479,28.757,28.757,0,0,0-1.436,4.095,4.578,4.578,0,0,0,.266,2.925,7.167,7.167,0,0,0,1.861,2.5,3.352,3.352,0,0,0,4.148.16,58.791,58.791,0,0,0,7.5-5.637,20.377,20.377,0,0,0,3.4-3.669,0.839,0.839,0,0,1,.372-0.372,32.487,32.487,0,0,0,3.4-2.659,1.046,1.046,0,0,0,.585-1.01,4.669,4.669,0,0,0-.372-1.861,0.456,0.456,0,0,0-.266-0.16,2.144,2.144,0,0,0-2.181.16c-0.957.851-1.914,1.7-2.818,2.553a3.205,3.205,0,0,0-.479.691,0.758,0.758,0,0,0,.106.319c0,0.053.107,0.053,0.16,0a2.376,2.376,0,0,0,1.17-.691,5.565,5.565,0,0,1,1.7-1.223c0.106-.053.159-0.106,0.266-0.16,0,0.319-.213.106-0.319,0.16a1.435,1.435,0,0,1-.745,1.064c-2.18,1.808-3.191,2.765-5.212,4.68-0.691.638,0.16,0.266-.744,0.532a2.458,2.458,0,0,1-.372.372,0.608,0.608,0,0,1-.692.266v0.053a1,1,0,0,1,.745-0.266,0.451,0.451,0,0,1,.372-0.372,3.307,3.307,0,0,1,.8-1.117,1.579,1.579,0,0,0,.532-1.01Zm-19.2-9.147c-0.106.16-.266,0.266-0.372,0.425a1.39,1.39,0,0,0-.319.266,2.459,2.459,0,0,1-.373.372,2.454,2.454,0,0,0-.372.372l-0.319.319a2.275,2.275,0,0,0-.372.319,2.421,2.421,0,0,0-.372.372c-0.16.106-.266,0.213-0.373,0.266l0.053,0.106-0.053-.053c0.16-.106.266-0.213,0.373-0.266a2.617,2.617,0,0,1,.425-0.372,2.312,2.312,0,0,1,.319-0.372l0.319-.319a2.664,2.664,0,0,0,.426-0.372l0.319-.319,0.319-.319c0.159-.106.266-0.266,0.425-0.372a2.312,2.312,0,0,0,.319-0.372l0.319-.319a0.525,0.525,0,0,1,.373-0.372,0.394,0.394,0,0,1,.319-0.319,1.294,1.294,0,0,1,1.435-1.01c0.107-.16.213-0.266,0.32-0.425a1.256,1.256,0,0,0,.372-0.372l0.053-.053-0.106.053a2.263,2.263,0,0,0-.319.372l-0.373.372a1.937,1.937,0,0,1-1.382,1.01,0.527,0.527,0,0,1-.373.372,0.478,0.478,0,0,1-.319.319,2.454,2.454,0,0,0-.372.372Zm4.892-4.148,0.373-.372a0.61,0.61,0,0,1,.638-0.266,2.67,2.67,0,0,0,.372-0.425,1,1,0,0,1,.745-0.266,1.163,1.163,0,0,1,.159-0.266s0.107,0,.107.053c0,0.16-.16.106-0.32,0.16a0.739,0.739,0,0,1-.744.266,0.529,0.529,0,0,1-.319.425,0.858,0.858,0,0,1-.691.319,2.459,2.459,0,0,0-.373.372l-0.053.053Zm-8.721,8.349a2.312,2.312,0,0,0,.319-0.372L312.5,42.6a2.364,2.364,0,0,0-.319.372ZM336.7,45.952a1.157,1.157,0,0,0-.532-0.106c-1.117.745-.744,0.479-1.01,2.021l-0.053-.053c1.489-.425.85-0.585,1.542-1.915Zm-12.763-3.031a2.271,2.271,0,0,0,1.436-1.064l0.053,0.053a1.87,1.87,0,0,0-1.436,1.064ZM336.7,45.952c0.106-.372-0.9.106-0.425,0a0.409,0.409,0,0,1,.106.16c-0.053.479,0.691-.266,0.266-0.213ZM399.663,63.98H399.61a13.451,13.451,0,0,1,2.606-1.649,1.759,1.759,0,0,0,1.223-2.287,10.485,10.485,0,0,0-.213-1.276,11.9,11.9,0,0,0-2.712-4.946,2.84,2.84,0,0,1-.9-1.329,1.485,1.485,0,0,0-.479-0.691c-1.116-1.064-1.914-2.5-3.616-2.819a3.468,3.468,0,0,1-.8-0.532c-0.585-.319-1.169-0.638-1.754-0.9a34.342,34.342,0,0,0-7.18-2.34,4.408,4.408,0,0,1-1.116-.319,0.237,0.237,0,0,1-.16-0.213,0.449,0.449,0,0,1,.16-0.266c1.116-.532,2.233-1.117,3.4-1.6a15.179,15.179,0,0,0,4.627-3.35c0.744-.745,1.435-1.489,2.127-2.287,1.914-2.127,3.988-4.148,5.8-6.435a8.814,8.814,0,0,0,.9-1.383c0.319-.744.692-1.436,1.064-2.18a4.8,4.8,0,0,0,.585-1.17,23.742,23.742,0,0,1,1.276-3.723,1.019,1.019,0,0,0,.053-0.957,2.4,2.4,0,0,1-.053-1.915,3.166,3.166,0,0,0,.213-0.9,8.182,8.182,0,0,0-1.542-3.935,14.33,14.33,0,0,0-2.712-2.34,18.358,18.358,0,0,0-4.2-2.127,23,23,0,0,0-7.6-.957,32.145,32.145,0,0,0-10,1.755,33.415,33.415,0,0,0-7.551,3.776c-0.639.479-1.011,1.117-1.649,1.6a33.84,33.84,0,0,0-9.945,11.965,10.833,10.833,0,0,1-1.489,2.34,2.111,2.111,0,0,0-.266,2.34,6.413,6.413,0,0,0,2.287,2.925c0.8,0.479,1.6.851,2.446,1.276a2.164,2.164,0,0,0,2.181-.213A7.549,7.549,0,0,0,366.373,35c0.372-.372.691-0.8-0.053-1.117a0.335,0.335,0,0,1,0-.479c0.159-.319.212-0.479-0.266-0.319-1.064.319-2.128,0.638-3.138,0.9-0.8.213-1.064-.053-0.8-0.851a6.357,6.357,0,0,1,.426-1.064,38.706,38.706,0,0,1,4.414-6.488A40.4,40.4,0,0,1,374.4,19.2a33.123,33.123,0,0,1,6.169-3.4c0.9-.372,1.861-0.691,2.712-1.117a18.825,18.825,0,0,1,4.414-1.223,19.885,19.885,0,0,0,2.446-.479,17.491,17.491,0,0,1,6.647-.372,1.494,1.494,0,0,1,1.064.319,6.629,6.629,0,0,1,2.234,3.563,7.76,7.76,0,0,1-.373,3.669,42.116,42.116,0,0,1-3.563,7.5,9.124,9.124,0,0,1-1.648,2.074c-1.383,1.223-2.553,2.659-3.882,3.935A25.949,25.949,0,0,1,384.4,38.72a3.842,3.842,0,0,0-1.277,1.01,1.744,1.744,0,0,1-1.382.745,8.547,8.547,0,0,0-3.457.9,10.624,10.624,0,0,1-2.234.585,0.305,0.305,0,0,1-.319-0.425,8.52,8.52,0,0,1,1.223-2.127,52,52,0,0,0,4.361-6.913c1.383-2.34,2.819-4.68,4.361-6.913,1.223-1.755,2.34-3.563,3.51-5.371a3.573,3.573,0,0,0,.532-2.34,2.486,2.486,0,0,0-2.234-2.393,1.256,1.256,0,0,0-1.489.638c-0.957,1.276-1.914,2.553-2.872,3.776a51.162,51.162,0,0,0-3.137,4.414c-1.223,2.021-2.447,3.988-3.723,6.009-2.552,4.042-5.265,8.03-7.605,12.231a2.742,2.742,0,0,1-2.339,1.489,90.257,90.257,0,0,0-9.2,1.7,5.773,5.773,0,0,0-1.49.585,1.4,1.4,0,0,0-.638,1.276,1,1,0,0,0,.373,1.276,1.217,1.217,0,0,1,.372.532,2.354,2.354,0,0,0,1.914,1.117,11.241,11.241,0,0,0,5.478-.266,0.675,0.675,0,0,0,.319-0.053c0.638-.053.8,0.213,0.585,0.745a9.961,9.961,0,0,1-.532,1.064,93.991,93.991,0,0,0-4.627,9.944,44.509,44.509,0,0,0-1.435,4.52,0.889,0.889,0,0,0,.319,1.17,14.355,14.355,0,0,1,1.436,1.064,2.286,2.286,0,0,0,1.329.532,0.718,0.718,0,0,0,.8-0.479,11.1,11.1,0,0,1,1.116-2.872,72.115,72.115,0,0,1,4.361-9.147c0.479-.8.9-1.649,1.33-2.446,0.691-1.329,1.329-2.659,2.021-3.935a2.458,2.458,0,0,1,1.861-1.436,31.208,31.208,0,0,1,7.392-.319,74.363,74.363,0,0,1,8.4,1.223,29.021,29.021,0,0,1,10.53,4.308,3.677,3.677,0,0,1,1.542,2.234A7.263,7.263,0,0,1,399.5,61c-0.266.745-.532,1.436-0.8,2.18a0.563,0.563,0,0,0,.106.266,0.4,0.4,0,0,0,.266-0.053c0.266-.266.372-0.8,0.638-0.691,0.426,0.213-.053.638-0.053,0.957V63.98ZM369.4,20a0.3,0.3,0,0,1,.372-0.319,0.8,0.8,0,0,1,1.011-.638c-0.054-.106-0.054-0.16.053-0.16,0,0,.053.053,0,0.053a0.2,0.2,0,0,1-.107.106,1,1,0,0,1-1.01.585A0.3,0.3,0,0,1,369.4,20a0.307,0.307,0,0,1-.319.319,1.822,1.822,0,0,1-1.7,1.223,0.366,0.366,0,0,1-.266.425,0.563,0.563,0,0,1-.691.638q0.079,0.319-.319.319a3.684,3.684,0,0,1-1.6,1.968,0.351,0.351,0,0,1-.372.319c-0.053.266-.159,0.532-0.213,0.8l-0.053-.053a0.108,0.108,0,0,1,.107.053,0.763,0.763,0,0,1,.159-0.744,0.352,0.352,0,0,1,.372-0.319,2.6,2.6,0,0,1,1.649-1.968c0-.213.106-0.372,0.319-0.319,0.053-.426.16-0.745,0.638-0.691,0.107-.106.213-0.266,0.319-0.372,0.266-.319.532-0.691,0.8-0.957a0.705,0.705,0,0,1,.851-0.266A0.323,0.323,0,0,1,369.4,20Zm6.647,16.22V36.167l-0.478.16a0.909,0.909,0,0,1-.585,1.064,2.6,2.6,0,0,1-1.33,1.968c-0.053.745-.106,0.8-0.744,0.851a0.74,0.74,0,0,1-.213.8,0.4,0.4,0,0,1-.372.319,0.488,0.488,0,0,1-.266.691,0.852,0.852,0,0,1-.8.745,0.676,0.676,0,0,0,.053.319,1.37,1.37,0,0,0-.106-0.266c0.426-.16.426-0.691,0.9-0.745a0.491,0.491,0,0,1,.213-0.745,0.4,0.4,0,0,1,.425-0.266c0.053-.266.16-0.532,0.213-0.8a1.011,1.011,0,0,1,.745-0.9,2.505,2.505,0,0,1,1.329-1.914,0.938,0.938,0,0,1,.585-1.064A3.649,3.649,0,0,1,376.051,36.22Zm-14.837-6.648a2.664,2.664,0,0,0,.426-0.372,0.607,0.607,0,0,1,.266-0.691c0.053-.213.159-0.479,0.212-0.691,0.054-.053.054-0.106,0.107-0.16a0.594,0.594,0,0,1,.372-0.425,0.537,0.537,0,0,1,.053.159,0.477,0.477,0,0,1-.532.372,0.826,0.826,0,0,1-.266.744c-0.106.213-.159,0.425-0.265,0.691-0.107.106-.266,0.213-0.426,0.372l-0.053.053Zm33.5,2.978-0.053-.053,0.053-.053v0.106ZM364.086,53.344l0.479-.16a0.4,0.4,0,0,0,.106-0.213c0.053-.053-0.053-0.106-0.053-0.106-0.16.106-.053,0.266,0,0.372-0.16.053-.372,0.106-0.532,0.16l0.053,0.106ZM363.5,54.78a0.2,0.2,0,0,0,.106-0.106c0.054,0,0-.053.054-0.106a0.4,0.4,0,0,0-.107.213,0.194,0.194,0,0,1-.159.053v0.053ZM362.225,61c-0.16.106-.266,0.213-0.426,0.319,0,0.16.053,0.319,0.053,0.479a0.134,0.134,0,0,1-.212.106c-0.053,0-.053-0.106-0.053-0.16,0.053-.106.159-0.266,0.212-0.372l0.479-.319a0.607,0.607,0,0,1,.266-0.691,0.676,0.676,0,0,1,.053-0.319c0-.16.053-0.213,0.106-0.106a0.167,0.167,0,0,1,0,.16l-0.212.213A0.819,0.819,0,0,1,362.225,61ZM391.42,36.326a0.333,0.333,0,0,1-.266-0.16,1.255,1.255,0,0,1-.106-0.425,3.116,3.116,0,0,1,1.489-1.489,0.479,0.479,0,0,1,.585,0c0.266,0.266,0,.532-0.213.638a6.287,6.287,0,0,0-.957,1.117A0.9,0.9,0,0,1,391.42,36.326Zm10.211-15.262a1.963,1.963,0,0,1-.532,1.276,0.27,0.27,0,0,1-.266.053,0.223,0.223,0,0,1-.159-0.213,2.5,2.5,0,0,1,.585-1.33,0.533,0.533,0,0,0,.159-0.053A0.922,0.922,0,0,0,401.631,21.064ZM367.7,50.1a0.34,0.34,0,0,1-.266.372H367.33a0.334,0.334,0,0,1,.106-0.425c0.054-.053.16-0.053,0.213-0.106C367.649,49.994,367.7,50.047,367.7,50.1Zm29.355-21.963c0.213,0,.319.053,0.266,0.159a2.2,2.2,0,0,1-.266.372,0.149,0.149,0,0,1-.266-0.053C396.845,28.456,397,28.3,397.057,28.137Zm2.287-3.3c0.053,0.106.16,0.16,0.106,0.266a0.2,0.2,0,0,1-.265.213,0.222,0.222,0,0,1-.16-0.213A0.29,0.29,0,0,1,399.344,24.84ZM370.149,42.921c0.106,0,.159.106,0.053,0.213a0.558,0.558,0,0,1-.213.16,0.134,0.134,0,0,1-.106-0.213A1.146,1.146,0,0,1,370.149,42.921Zm-9.466,17.5c0.053-.106.106-0.16,0.212-0.053,0.053,0,.107.053,0.053,0.106a0.134,0.134,0,0,1-.212.106C360.683,60.576,360.683,60.47,360.683,60.417Zm32.758-26.8-0.106-.053c0.053-.106.106-0.16,0.213-0.053ZM361.693,58.29a0.165,0.165,0,0,1,.053.106c0,0.053-.053.106-0.053,0.16a0.2,0.2,0,0,1-.053-0.16C361.64,58.343,361.693,58.343,361.693,58.29Zm37.917,5.69-0.053.053,0.106-.053H399.61Zm32.653-23.346,0.053,0.053a1.4,1.4,0,0,0-1.01.372c-0.692.479-1.117,1.223-1.755,1.7-1.383,1.064-2.765,2.18-4.2,3.138a13.54,13.54,0,0,1-2.766,1.649c-0.159.053-.372,0.106-0.425-0.053a0.336,0.336,0,0,1,0-.319c0.8-1.223,1.01-2.712,1.648-3.988a1.067,1.067,0,0,0,.266-0.744,5.7,5.7,0,0,1,.532-2.819,8.3,8.3,0,0,0,.266-3.031,2.2,2.2,0,0,0-.851-1.808c-0.8-.319-1.542-1.01-2.552-0.691a4.449,4.449,0,0,0-.9.266,0.643,0.643,0,0,1-.32,0,1.426,1.426,0,0,1,.107-0.266,4.09,4.09,0,0,1,.638-0.691,0.8,0.8,0,0,0,.159-1.17,3.454,3.454,0,0,0-4.2-1.276,14.265,14.265,0,0,1-1.276.638,11.605,11.605,0,0,0-4.467,2.819c-0.638.638-1.33,1.223-2.021,1.808a8.7,8.7,0,0,0-1.542,1.861,55.59,55.59,0,0,0-3.35,6.009,4.665,4.665,0,0,0-.639,2.127c-0.053,1.223,0,2.393-.053,3.616a5.025,5.025,0,0,0,.266,1.755c1.117,3.031,3.457,4.786,6.329,5.956a1.357,1.357,0,0,0,.8,0,10.075,10.075,0,0,0,5.956-2.925c0.479-.479,1.064-0.9,1.543-1.383a1.352,1.352,0,0,1,1.169-.425c0.585,0.053,1.17.053,1.755,0.053a4.719,4.719,0,0,0,1.7-.425,21.064,21.064,0,0,0,4.68-2.818c1.383-1.117,2.925-2.074,3.616-3.882a2.767,2.767,0,0,1,.745-0.851c0.478-.479.957-1.01,1.436-1.489a1.513,1.513,0,0,0,.531-1.436c-0.053-.479.213-1.17-0.212-1.329-0.639-.266-1.011.425-1.277,0.9a10.045,10.045,0,0,1-1.7,1.968,4.464,4.464,0,0,1-2.819,1.6c-0.053.106-.053,0.213-0.106,0.319,0,0.053-.107.053-0.107,0.053-0.159-.053-0.159-0.16-0.053-0.213,0.053-.053.213-0.053,0.266-0.106a8.4,8.4,0,0,1,1.542-1.808c0.426-.372.957-0.691,1.383-1.117A2.5,2.5,0,0,0,432.263,40.634Zm-13.189-5.159a0.282,0.282,0,0,1-.319.319,1.458,1.458,0,0,1-.531.957,27.688,27.688,0,0,0-3.138,5.956,8.575,8.575,0,0,0-.479,5.158,1.993,1.993,0,0,1-.744,2.287c-0.426.372-.851,0.8-1.276,1.17a0.909,0.909,0,0,0-.373.691,1.2,1.2,0,0,1-1.276,1.17,3.251,3.251,0,0,0-1.808.532c-0.8.425-1.223,0.213-1.542-.744a4.545,4.545,0,0,1-.053-2.074,19.726,19.726,0,0,0,.372-2.553,1.862,1.862,0,0,1,.319-0.851,23.344,23.344,0,0,1,2.34-3.616c0.638-.744,1.117-1.6,1.7-2.34a15.66,15.66,0,0,1,4.467-4.307c0.744-.372,1.276-1.01,2.02-1.383a0.3,0.3,0,0,1,.373-0.319c0-.16.053-0.319,0.053-0.425a0.451,0.451,0,0,1,.159.16A0.214,0.214,0,0,1,419.074,35.476Zm-14.571,9.2v0.053c0.053-.053.16-0.106,0.213-0.16a0.052,0.052,0,0,1-.053.053A0.2,0.2,0,0,1,404.5,44.676Zm18.773-6.754a17.478,17.478,0,0,1-.692,2.765,44.494,44.494,0,0,1-3.3,6.063,1.592,1.592,0,0,1-.266.372,0.292,0.292,0,0,1-.266.106,0.245,0.245,0,0,1-.159-0.372,15.5,15.5,0,0,1,1.542-4.042,10.086,10.086,0,0,0,.9-1.861,3.214,3.214,0,0,1,.638-1.276,2.414,2.414,0,0,0,1.064-1.808,0.245,0.245,0,0,1,.266-0.16A0.749,0.749,0,0,1,423.276,37.922Zm-19.2,8.615-0.053-.106h0.106Zm29.568-12.976h0a6.935,6.935,0,0,1-1.276,2.18h0.053c-0.373.851-.692,1.649-1.064,2.446a28.5,28.5,0,0,0-3.084,12.869,2.41,2.41,0,0,1-.053,1.064,1.291,1.291,0,0,0,.212,1.436,19.4,19.4,0,0,0,2.978,2.925,1.72,1.72,0,0,0,1.33.745,3.55,3.55,0,0,0,1.861-.745c0.319-.266.585-0.585,0.9-0.851,0.479-.532.957-1.117,1.436-1.649a60.073,60.073,0,0,0,5.85-6.913,16.444,16.444,0,0,0,1.967-3.031,8.551,8.551,0,0,1,1.117-1.7,5.983,5.983,0,0,0,1.117-1.861c0.638-1.489,1.329-2.925,1.914-4.467a30.011,30.011,0,0,0,.9-3.138,3.425,3.425,0,0,0,.107-1.064,3.591,3.591,0,0,0-3.085-3.669,8.444,8.444,0,0,0-2.02.106,2.413,2.413,0,0,0-1.968,2.127,1.014,1.014,0,0,0,1.383,1.17c0.478-.16.957-0.425,1.435-0.585,0.373-.16.585,0.053,0.532,0.425l-0.159.479a20.288,20.288,0,0,1-1.755,4.148,47.085,47.085,0,0,1-3.829,6.275c-1.6,2.127-3.138,4.254-4.786,6.382a26.368,26.368,0,0,1-1.915,2.233,0.24,0.24,0,0,1-.319.053,0.208,0.208,0,0,1-.106-0.213,6.8,6.8,0,0,1,.053-1.064,44.826,44.826,0,0,1,4.148-12.125,12.128,12.128,0,0,0,.9-3.084c0.319-1.436-.479-2.34-1.223-3.244a2.861,2.861,0,0,0-2.021-.585,0.5,0.5,0,0,0-.372.266,1.983,1.983,0,0,0-.372.851A2.587,2.587,0,0,1,433.646,33.561ZM441.3,43.878c-0.213-.053-0.319-0.266-0.213-0.372,0.425-.638.638-1.489,1.595-1.6a0.974,0.974,0,0,0,.8-1.01,9.352,9.352,0,0,1,1.649-3.882c0.372-.638.638-1.276,0.957-1.968,0.319-.745.691-1.489,1.01-2.287a6.946,6.946,0,0,0,.638-2.553A0.267,0.267,0,0,1,448,29.892a0.4,0.4,0,0,1,.373.266,2.094,2.094,0,0,1,.319,1.7,21.006,21.006,0,0,1-3.085,6.967,44.635,44.635,0,0,1-3.137,4.467A1.661,1.661,0,0,1,441.3,43.878Zm-7.658-10.317-0.053-.053c-0.054.053-.054,0.053,0.053,0.053h0Zm-1.223,2.18a0.189,0.189,0,0,1-.107-0.053c-0.053.053-.053,0.106,0.054,0.053h0.053Zm36.853,10.476,0.053,0.053a3.364,3.364,0,0,0-1.7.8,14.527,14.527,0,0,1-2.5,1.436,7.971,7.971,0,0,0-2.393,1.276,29.143,29.143,0,0,1-2.606,1.861,16.515,16.515,0,0,1-7.285,2.287c-1.011.106-1.277-.053-1.489-0.957a4.12,4.12,0,0,1-.107-0.8,10.1,10.1,0,0,1,1.117-5.105c0.479-.9.479-0.957,1.436-0.532a4.657,4.657,0,0,0,2.818.266,27.422,27.422,0,0,0,2.713-.957,16.252,16.252,0,0,0,6.275-4.573,8.163,8.163,0,0,0,2.233-6.435,0.584,0.584,0,0,1,.054-0.266,0.934,0.934,0,0,0-.32-1.276,14.359,14.359,0,0,0-3.509-2.446,4.44,4.44,0,0,0-.8-0.213,7.008,7.008,0,0,0-3.723.745,9.839,9.839,0,0,1-1.967,1.01,1.287,1.287,0,0,0-.958.851,1.965,1.965,0,0,1-.957,1.01c-0.319.266-.691,0.532-0.957,0.8a28.471,28.471,0,0,0-5.052,6.222,15.546,15.546,0,0,0-2.18,5.637c-0.319,2.234-.479,4.414.957,6.435,1.914,2.606,6.647,4.733,10.1,3.669a2.135,2.135,0,0,1,.8-0.16c3.137-.319,5.637-2.074,7.977-3.882a20.75,20.75,0,0,0,4.573-5.477,18.566,18.566,0,0,1,1.17-2.287,0.641,0.641,0,0,0,0-.319,1.371,1.371,0,0,1-.266.106,2.557,2.557,0,0,0-.638.9,17.628,17.628,0,0,1-5.371,4.946c-0.213.106-.426,0.266-0.585,0.053-0.213-.159,0-0.372.159-0.532,0.532-.479,1.064-1.01,1.649-1.489a1.479,1.479,0,0,0,.691-1.01C468.638,47.228,469.17,46.8,469.276,46.218ZM457.151,42.07H457.1a1.087,1.087,0,0,1-.9.745,1.433,1.433,0,0,1-1.383.106c-0.212-.16.373-0.585,1.223-0.744C456.407,42.123,456.779,42.123,457.151,42.07Zm-1.276-.425a0.294,0.294,0,0,1-.106-0.425,21.1,21.1,0,0,1,1.755-2.074,22.153,22.153,0,0,1,4.041-3.35,2.128,2.128,0,0,1,1.861-.532,4.385,4.385,0,0,1-.744,1.6,12.448,12.448,0,0,1-4.627,3.829c-0.585.266-1.17,0.585-1.7,0.851C456.194,41.591,456.034,41.591,455.875,41.644Zm13.454,4.627-0.053-.053a2.809,2.809,0,0,0,1.915-1.542h0.053A4.049,4.049,0,0,0,469.329,46.271Zm3.829-3.191,0.053,0.053a1,1,0,0,0-1.01.532V43.612A0.929,0.929,0,0,0,473.158,43.08Zm-0.957.532v0.053l-0.319.319V43.931A0.339,0.339,0,0,0,472.2,43.612Zm-0.319.319v0.053l-0.319.319V44.25A0.306,0.306,0,0,0,471.882,43.931Zm-0.638.745a2.312,2.312,0,0,0,.319-0.372V44.25c-0.106.16-.266,0.266-0.372,0.425h0.053Zm3.563-3.191a0.165,0.165,0,0,0,.053-0.106,0.052,0.052,0,0,0-.053.053v0.053Zm-0.372.213a2.354,2.354,0,0,0,.372-0.213V41.432a1.6,1.6,0,0,0-.372.266h0Zm0,0-0.319.319,0.053,0.053a0.966,0.966,0,0,0,.266-0.372h0Zm-0.585.691,0.319-.319-0.053-.053a2.314,2.314,0,0,0-.32.372h0.054Zm-0.054,0h0.054a0.461,0.461,0,0,0-.266.372h-0.053C473.637,42.6,473.743,42.5,473.8,42.389Zm-0.265.372a2.324,2.324,0,0,1-.373.319l0.053,0.053a0.453,0.453,0,0,1,.373-0.372h-0.053Zm12.391-10.636a2,2,0,0,0-.9-2.34c-1.33-1.861-3.244-2.393-5.371-2.712a5.871,5.871,0,0,0-4.574,1.223,9.411,9.411,0,0,0-3.669,4.467c-1.17,2.606-1.383,5.158.425,7.658a0.737,0.737,0,0,1,.16.9c-0.426.532-.053,0.851,0.106,1.33a1.3,1.3,0,0,0,1.17.9c0.8,0.16,1.33.851,2.18,0.585,0.958,0.479,1.915.9,2.925,1.383a0.793,0.793,0,0,1,.319,1.01,15.147,15.147,0,0,1-.8,2.18,31.18,31.18,0,0,0-1.33,3.935,2.855,2.855,0,0,0,.319,2.393,7.1,7.1,0,0,0,3.244,3.244,4.12,4.12,0,0,0,4.786-.691,22.148,22.148,0,0,0,5.052-5.85,3.948,3.948,0,0,1,.958-1.117,39.344,39.344,0,0,0,3.882-4.573c0.744-1.01,1.382-1.915,2.074-2.925a1.12,1.12,0,0,0-.053-1.383,1.519,1.519,0,0,0-1.436-.479,3.162,3.162,0,0,0-1.117.744c-0.532.638-1.17,1.276-1.7,1.915-0.691.851-1.382,1.649-2.127,2.446-1.6,1.542-2.978,3.138-4.52,4.68a21.605,21.605,0,0,1-4.467,3.776,0.538,0.538,0,0,1-.479.053,0.74,0.74,0,0,1,0-.479,23.984,23.984,0,0,1,2.553-4.733,2.88,2.88,0,0,0,.266-2.925,2.747,2.747,0,0,0-1.436-1.649c-1.117-.532-2.181-1.17-3.3-1.755-0.426-.213-0.479-0.479-0.054-0.9,0.16-.16.373-0.266,0.585-0.479A19.931,19.931,0,0,0,483.9,37.55C484.965,35.954,486.028,34.252,485.922,32.125Zm-10.9-.266a0.2,0.2,0,0,0,.106-0.106h0.053a0.194,0.194,0,0,1-.159.053,1.4,1.4,0,0,1-.9,1.329h0A1.988,1.988,0,0,1,475.02,31.859Zm-1.01,5.212a10.28,10.28,0,0,1,.957-2.712,3.442,3.442,0,0,1,.425-0.479,6.54,6.54,0,0,1,3.138-3.191,6.413,6.413,0,0,0,1.382-1.064,0.564,0.564,0,0,1,1.011.372,4.338,4.338,0,0,1-.053,1.17,7.972,7.972,0,0,1-1.383,3.4,15.842,15.842,0,0,1-4.042,4.573c-0.691.585-1.01,0.479-1.223-.425C474.116,38.188,474.063,37.6,474.01,37.071Zm6.807-.319a0.447,0.447,0,0,1-.373-0.532,3.742,3.742,0,0,1,1.542-1.968,0.478,0.478,0,0,1,.266.053,0.776,0.776,0,0,1,.266.319,1.9,1.9,0,0,1-.106.532c-0.372.479-.8,0.957-1.223,1.489A0.989,0.989,0,0,1,480.817,36.752Zm1.01-3.457a0.461,0.461,0,0,1-.266-0.372,2.556,2.556,0,0,1,.213-0.585c0.212-.532.585-0.8,0.8-0.585a0.807,0.807,0,0,1-.053,1.064A0.646,0.646,0,0,1,481.827,33.3Zm-9.572,4.52a1.271,1.271,0,0,1-.107-0.532,1.234,1.234,0,0,1,.107-0.425,0.807,0.807,0,0,1,.212.425A2.614,2.614,0,0,1,472.255,37.815Z"/>
			</svg>